<svg width="32" height="32" viewBox="0 0 32 32" fill="none" xmlns="http://www.w3.org/2000/svg">
<g clip-path="url(#clip0_201_4043)">
<path d="M30.6664 17.3333C30.6615 13.6764 29.292 10.153 26.8258 7.45283C24.3597 4.75264 20.9745 3.07013 17.333 2.73467V0H14.6664V2.73467C11.9387 2.9784 9.33422 3.98249 7.14886 5.6328C4.9635 7.2831 3.28497 9.51342 2.30409 12.0702C1.32321 14.627 1.07933 17.4077 1.60016 20.0962C2.12099 22.7847 3.38564 25.2731 5.25035 27.2787L2.67969 30.1027L4.65302 31.8973L7.23169 29.0667C9.75735 30.9729 12.8354 32.0041 15.9997 32.0041C19.164 32.0041 22.242 30.9729 24.7677 29.0667L27.3464 31.9013L29.3197 30.1067L26.749 27.2827C29.2662 24.5811 30.666 21.0259 30.6664 17.3333ZM15.9997 29.3333C13.6263 29.3333 11.3062 28.6295 9.33285 27.311C7.35946 25.9924 5.82138 24.1182 4.91313 21.9255C4.00488 19.7328 3.76724 17.32 4.23026 14.9923C4.69329 12.6645 5.83618 10.5263 7.51441 8.84805C9.19264 7.16982 11.3308 6.02693 13.6586 5.56391C15.9864 5.10089 18.3992 5.33853 20.5919 6.24678C22.7846 7.15503 24.6587 8.6931 25.9773 10.6665C27.2959 12.6399 27.9997 14.96 27.9997 17.3333C27.9958 20.5147 26.7303 23.5647 24.4807 25.8143C22.2311 28.0639 19.1811 29.3295 15.9997 29.3333Z" fill="#BE9140"/>
<path d="M7.36379 2.32671L5.94113 0.074707C3.63973 1.42489 1.62822 3.21708 0.0224609 5.34804L2.23979 6.82671C3.63666 5.00566 5.37761 3.47672 7.36379 2.32671Z" fill="#BE9140"/>
<path d="M29.7607 6.82671L31.978 5.34804C30.3723 3.21708 28.3608 1.42489 26.0594 0.074707L24.6367 2.32671C26.6229 3.47672 28.3638 5.00566 29.7607 6.82671Z" fill="#BE9140"/>
<path d="M14.667 9.33337V16.552L19.0576 20.9427L20.943 19.0574L17.3337 15.448V9.33337H14.667Z" fill="#BE9140"/>
</g>
<defs>
<clipPath id="clip0_201_4043">
<rect width="32" height="32" fill="white"/>
</clipPath>
</defs>
</svg>
