<svg width="32" height="32" viewBox="0 0 32 32" fill="none" xmlns="http://www.w3.org/2000/svg">
<path d="M30.356 11.1893L20.7133 1.95196C19.4666 0.705593 17.777 0.00376322 16.0141 1.50896e-05C14.2513 -0.00373304 12.5587 0.690905 11.3067 1.93196L1.644 11.1893C1.12543 11.6878 0.712597 12.2857 0.430142 12.9473C0.147688 13.6089 0.00139735 14.3206 0 15.04L0 32H32V15.04C31.9986 14.3206 31.8523 13.6089 31.5699 12.9473C31.2874 12.2857 30.8746 11.6878 30.356 11.1893ZM13.172 3.83729C13.9363 3.10387 14.9557 2.69612 16.015 2.7001C17.0743 2.70408 18.0905 3.11948 18.8493 3.85862L27.8467 12.4773L18.828 21.496C18.0658 22.2226 17.0531 22.6279 16 22.6279C14.9469 22.6279 13.9342 22.2226 13.172 21.496L4.15333 12.4773L13.172 3.83729ZM29.3333 29.3333H2.66667V15.04C2.66667 14.9546 2.684 14.872 2.692 14.7866L11.2867 23.3813C12.5369 24.6311 14.2322 25.3332 16 25.3332C17.7678 25.3332 19.4632 24.6311 20.7133 23.3813L29.308 14.7866C29.316 14.872 29.3333 14.9546 29.3333 15.04V29.3333Z" fill="#BE9140"/>
</svg>
