<svg width="192" height="177" viewBox="0 0 192 177" fill="none" xmlns="http://www.w3.org/2000/svg">
<path d="M11.959 163.335L7.54544 175.089H5.31267L0.882019 163.335H2.94501L6.42906 173.11L9.92939 163.335H11.959Z" fill="#1753AC"/>
<path d="M19.248 172.984C19.7209 172.561 20.0031 171.989 20.0938 171.268H14.9359C14.9468 171.978 15.2003 172.547 15.6965 172.975C16.1926 173.404 16.8066 173.618 17.5393 173.618C18.2044 173.618 18.7743 173.407 19.248 172.984ZM19.848 166.219C20.5527 166.62 21.1055 167.183 21.5055 167.911C21.9056 168.638 22.1056 169.481 22.1056 170.438C22.1056 171.397 21.9118 172.24 21.5226 172.967C21.1334 173.694 20.5868 174.255 19.8821 174.649C19.1774 175.045 18.368 175.242 17.4548 175.242C16.5756 175.242 15.7918 175.05 15.1041 174.666C14.4165 174.283 13.8808 173.745 13.4978 173.051C13.114 172.358 12.9225 171.561 12.9225 170.658C12.9225 170.309 12.945 169.993 12.9908 169.711H20.1101C20.0542 168.967 19.7775 168.37 19.2813 167.918C18.7851 167.468 18.1765 167.242 17.4548 167.242C16.4175 167.242 15.6848 167.677 15.2569 168.544H13.1768C13.4583 167.687 13.9684 166.986 14.7072 166.439C15.4453 165.893 16.3616 165.619 17.4548 165.619C18.3455 165.619 19.1433 165.819 19.848 166.219Z" fill="#1753AC"/>
<path d="M27.687 170.438L31.9827 175.09H29.3778L25.9279 171.082V175.09H23.9998V162.575H25.9279V169.847L29.3104 165.77H31.9827L27.687 170.438Z" fill="#1753AC"/>
<path d="M35.2971 175.09H33.369V165.771H35.2971V175.09ZM33.4698 164.181C33.2333 163.945 33.1155 163.652 33.1155 163.302C33.1155 162.952 33.2333 162.659 33.4698 162.422C33.707 162.185 34.0001 162.068 34.3497 162.068C34.6877 162.068 34.9754 162.185 35.2118 162.422C35.449 162.659 35.5677 162.952 35.5677 163.302C35.5677 163.652 35.449 163.945 35.2118 164.181C34.9754 164.418 34.6877 164.536 34.3497 164.536C34.0001 164.536 33.707 164.418 33.4698 164.181Z" fill="#1753AC"/>
<path d="M39.7619 175.09H37.8338V162.575H39.7619V175.09Z" fill="#1753AC"/>
<path d="M52.7665 173.043C53.1387 172.727 53.3247 172.288 53.3247 171.723C53.3247 171.149 53.127 170.692 52.7332 170.353C52.3378 170.015 51.8137 169.846 51.1594 169.846H48.6235V173.516H51.2276C51.8812 173.516 52.3944 173.358 52.7665 173.043ZM48.6235 168.273H51.0075C51.6385 168.273 52.1324 168.13 52.4874 167.842C52.8425 167.555 53.02 167.141 53.02 166.599C53.02 166.069 52.8425 165.655 52.4874 165.356C52.1324 165.058 51.6385 164.908 51.0075 164.908H48.6235V168.273ZM54.5931 170.05C55.0326 170.602 55.2528 171.228 55.2528 171.927C55.2528 172.524 55.097 173.062 54.7869 173.542C54.4776 174.021 54.0287 174.399 53.4433 174.675C52.8565 174.951 52.1742 175.09 51.3966 175.09H46.6946V163.336H51.1765C51.9773 163.336 52.665 163.471 53.2402 163.741C53.8147 164.012 54.2488 164.375 54.5419 164.832C54.8349 165.289 54.9815 165.799 54.9815 166.362C54.9815 167.039 54.8016 167.603 54.4403 168.053C54.0798 168.504 53.5953 168.838 52.9859 169.052C53.6178 169.164 54.1535 169.497 54.5931 170.05Z" fill="#1753AC"/>
<path d="M62.3128 164.308C62.1159 164.111 62.0166 163.871 62.0166 163.589C62.0166 163.307 62.1159 163.068 62.3128 162.871C62.5097 162.674 62.7493 162.574 63.0315 162.574C63.3137 162.574 63.5532 162.674 63.7501 162.871C63.9478 163.068 64.0463 163.307 64.0463 163.589C64.0463 163.871 63.9478 164.111 63.7501 164.308C63.5532 164.505 63.3137 164.604 63.0315 164.604C62.7493 164.604 62.5097 164.505 62.3128 164.308ZM59.404 164.308C59.2071 164.111 59.1078 163.871 59.1078 163.589C59.1078 163.307 59.2071 163.068 59.404 162.871C59.6009 162.674 59.8405 162.574 60.1227 162.574C60.4048 162.574 60.6444 162.674 60.8413 162.871C61.0382 163.068 61.1375 163.307 61.1375 163.589C61.1375 163.871 61.0382 164.111 60.8413 164.308C60.6444 164.505 60.4048 164.604 60.1227 164.604C59.8405 164.604 59.6009 164.505 59.404 164.308ZM65.7883 165.771V175.09H63.8602V173.99C63.5563 174.373 63.1586 174.675 62.6679 174.895C62.1779 175.114 61.6561 175.224 61.1034 175.224C60.3707 175.224 59.7141 175.072 59.1334 174.768C58.5527 174.463 58.0961 174.013 57.7635 173.415C57.4309 172.818 57.265 172.096 57.265 171.25V165.771H59.176V170.962C59.176 171.797 59.3846 172.437 59.8009 172.882C60.2188 173.328 60.7878 173.55 61.5096 173.55C62.2306 173.55 62.8035 173.328 63.226 172.882C63.6486 172.437 63.8602 171.797 63.8602 170.962V165.771H65.7883Z" fill="#1753AC"/>
<path d="M71.3775 166.016C71.845 165.752 72.4001 165.618 73.0428 165.618V167.615H72.5528C71.7977 167.615 71.2248 167.806 70.8364 168.189C70.4472 168.572 70.2526 169.238 70.2526 170.185V175.09H68.3245V165.771H70.2526V167.124C70.5348 166.65 70.9093 166.281 71.3775 166.016Z" fill="#1753AC"/>
<path d="M80.256 173.212C80.6901 172.975 81.0421 172.62 81.3135 172.147C81.5833 171.673 81.7189 171.098 81.7189 170.422C81.7189 169.746 81.5895 169.173 81.3297 168.705C81.0708 168.237 80.7266 167.884 80.2986 167.648C79.8691 167.411 79.4079 167.293 78.9117 167.293C78.4155 167.293 77.9566 167.411 77.5333 167.648C77.11 167.884 76.775 168.237 76.527 168.705C76.2789 169.173 76.1548 169.746 76.1548 170.422C76.1548 171.426 76.4114 172.2 76.9247 172.747C77.4371 173.294 78.0829 173.567 78.8605 173.567C79.3567 173.567 79.8218 173.449 80.256 173.212ZM76.4766 174.641C75.7656 174.241 75.2075 173.677 74.802 172.95C74.3957 172.223 74.1926 171.38 74.1926 170.422C74.1926 169.474 74.4012 168.635 74.819 167.902C75.2354 167.169 75.8052 166.606 76.527 166.21C77.2487 165.816 78.055 165.619 78.9458 165.619C79.8358 165.619 80.6421 165.816 81.3639 166.21C82.0848 166.606 82.6547 167.169 83.0718 167.902C83.4889 168.635 83.6974 169.474 83.6974 170.422C83.6974 171.369 83.4834 172.209 83.0547 172.941C82.6268 173.675 82.043 174.241 81.3049 174.641C80.5661 175.041 79.7513 175.241 78.8605 175.241C77.9814 175.241 77.1867 175.041 76.4766 174.641Z" fill="#1753AC"/>
<path d="M87.0203 174.844C86.4396 174.58 85.9806 174.218 85.6418 173.762C85.3038 173.305 85.1232 172.795 85.1007 172.231H87.0962C87.1304 172.626 87.3187 172.956 87.663 173.221C88.0064 173.486 88.4382 173.618 88.9569 173.618C89.498 173.618 89.9182 173.514 90.2167 173.305C90.5152 173.097 90.6648 172.828 90.6648 172.502C90.6648 172.152 90.4981 171.893 90.1663 171.724C89.8329 171.555 89.3065 171.369 88.5848 171.165C87.8855 170.974 87.3164 170.788 86.8768 170.608C86.4373 170.427 86.0558 170.151 85.7349 169.779C85.4139 169.406 85.2534 168.916 85.2534 168.308C85.2534 167.812 85.4 167.357 85.693 166.946C85.9861 166.535 86.4055 166.211 86.9528 165.974C87.4994 165.737 88.1281 165.618 88.8383 165.618C89.8981 165.618 90.7524 165.887 91.4005 166.422C92.0487 166.957 92.3952 167.688 92.4409 168.612H90.5129C90.4787 168.195 90.3097 167.863 90.0051 167.614C89.7011 167.366 89.2895 167.242 88.7708 167.242C88.2638 167.242 87.8746 167.338 87.604 167.529C87.3327 167.722 87.1978 167.975 87.1978 168.291C87.1978 168.539 87.2885 168.747 87.4692 168.916C87.649 169.085 87.8684 169.219 88.1281 169.314C88.3871 169.409 88.7708 169.531 89.2778 169.677C89.9547 169.858 90.5097 170.041 90.9439 170.227C91.378 170.413 91.7525 170.686 92.0688 171.048C92.3843 171.408 92.5479 171.887 92.5588 172.485C92.5588 173.015 92.4123 173.488 92.1192 173.905C91.8262 174.322 91.4122 174.65 90.8765 174.887C90.3407 175.123 89.712 175.242 88.991 175.242C88.2576 175.242 87.6009 175.109 87.0203 174.844Z" fill="#1753AC"/>
<path d="M103.078 165.771V175.089H101.15V173.99C100.846 174.374 100.448 174.675 99.9586 174.895C99.4679 175.114 98.9461 175.224 98.3941 175.224C97.6607 175.224 97.0041 175.072 96.4234 174.768C95.8427 174.463 95.3861 174.013 95.0535 173.415C94.7209 172.818 94.555 172.096 94.555 171.25V165.771H96.4661V170.963C96.4661 171.797 96.6746 172.437 97.0909 172.882C97.5088 173.328 98.0778 173.551 98.7988 173.551C99.5206 173.551 100.094 173.328 100.515 172.882C100.939 172.437 101.15 171.797 101.15 170.963V165.771H103.078Z" fill="#1753AC"/>
<path d="M112.447 177H110.52V161.543H112.447V177Z" fill="#1753AC"/>
<path d="M121.816 173.533H125.79V175.089H119.889V163.335H121.816V173.533Z" fill="#1753AC"/>
<path d="M133.984 168.747C133.719 168.274 133.373 167.913 132.943 167.665C132.515 167.418 132.053 167.293 131.557 167.293C131.061 167.293 130.599 167.415 130.171 167.656C129.742 167.899 129.395 168.254 129.13 168.722C128.865 169.19 128.733 169.746 128.733 170.388C128.733 171.03 128.865 171.594 129.13 172.079C129.395 172.564 129.745 172.933 130.179 173.187C130.613 173.441 131.072 173.567 131.557 173.567C132.053 173.567 132.515 173.443 132.943 173.195C133.373 172.947 133.719 172.583 133.984 172.104C134.249 171.625 134.382 171.064 134.382 170.422C134.382 169.779 134.249 169.221 133.984 168.747ZM127.338 167.902C127.727 167.18 128.256 166.619 128.928 166.219C129.598 165.819 130.339 165.618 131.151 165.618C131.884 165.618 132.524 165.763 133.071 166.05C133.618 166.338 134.055 166.696 134.382 167.124V165.771H136.327V175.09H134.382V173.703C134.055 174.142 133.609 174.509 133.046 174.802C132.482 175.095 131.839 175.242 131.118 175.242C130.318 175.242 129.584 175.035 128.92 174.625C128.253 174.213 127.727 173.638 127.338 172.899C126.949 172.161 126.754 171.324 126.754 170.388C126.754 169.452 126.949 168.623 127.338 167.902Z" fill="#1753AC"/>
<path d="M151.378 165.771L148.486 175.09H146.456L144.579 168.207L142.702 175.09H140.672L137.764 165.771H139.726L141.671 173.263L143.649 165.771H145.661L147.555 173.229L149.484 165.771H151.378Z" fill="#1753AC"/>
<path d="M164.129 163.335V164.908H159.14V168.375H163.03V169.948H159.14V175.089H157.212V163.335H164.129Z" fill="#1753AC"/>
<path d="M167.85 175.09H165.923V165.771H167.85V175.09ZM166.023 164.181C165.787 163.945 165.668 163.652 165.668 163.302C165.668 162.952 165.787 162.659 166.023 162.422C166.261 162.185 166.554 162.068 166.903 162.068C167.241 162.068 167.528 162.185 167.765 162.422C168.003 162.659 168.121 162.952 168.121 163.302C168.121 163.652 168.003 163.945 167.765 164.181C167.528 164.418 167.241 164.536 166.903 164.536C166.554 164.536 166.261 164.418 166.023 164.181Z" fill="#1753AC"/>
<path d="M173.439 166.016C173.907 165.752 174.463 165.618 175.104 165.618V167.615H174.615C173.859 167.615 173.287 167.806 172.898 168.189C172.509 168.572 172.315 169.238 172.315 170.185V175.09H170.386V165.771H172.315V167.124C172.597 166.65 172.971 166.281 173.439 166.016Z" fill="#1753AC"/>
<path d="M190.132 166.076C190.712 166.38 191.168 166.831 191.502 167.428C191.833 168.026 192 168.747 192 169.593V175.09H190.089V169.881C190.089 169.046 189.88 168.407 189.463 167.961C189.046 167.516 188.476 167.293 187.755 167.293C187.033 167.293 186.462 167.516 186.039 167.961C185.616 168.407 185.403 169.046 185.403 169.881V175.09H183.493V169.881C183.493 169.046 183.284 168.407 182.867 167.961C182.45 167.516 181.88 167.293 181.159 167.293C180.438 167.293 179.866 167.516 179.443 167.961C179.02 168.407 178.809 169.046 178.809 169.881V175.09H176.881V165.771H178.809V166.836C179.124 166.453 179.524 166.155 180.009 165.941C180.494 165.726 181.012 165.619 181.565 165.619C182.309 165.619 182.974 165.777 183.56 166.092C184.147 166.408 184.598 166.865 184.915 167.463C185.196 166.899 185.635 166.45 186.233 166.117C186.83 165.785 187.472 165.619 188.161 165.619C188.894 165.619 189.55 165.771 190.132 166.076Z" fill="#1753AC"/>
<path d="M68.1826 37.0403C68.1826 37.0403 66.9336 38.2435 67.0259 38.7986C67.0259 38.7986 68.1361 38.4745 68.1826 37.0403Z" fill="#1753AC"/>
<path d="M73.2718 37.0403C73.2718 37.0403 72.0228 37.8729 71.4212 39.5847C71.4212 39.5847 75.0301 38.2435 76.3256 38.3125C76.3256 38.3125 75.5852 36.948 73.4571 37.0403H73.2718Z" fill="#1753AC"/>
<path d="M81.7558 83.0559C81.7582 82.9892 81.7496 82.9233 81.7233 82.8598C81.7233 82.8598 81.7333 82.935 81.7558 83.0559Z" fill="#1753AC"/>
<path d="M86.2265 63.9214C79.6554 66.5597 78.4994 70.7236 78.4994 70.7236C78.4994 70.7236 76.8791 67.2047 84.331 62.812C84.331 62.812 90.4959 60.2211 91.4092 57.5356C91.4092 57.5356 92.7969 61.2832 86.2265 63.9214ZM74.5378 72.8983C69.6637 67.0055 75.0317 62.5329 75.0317 62.5329L78.2676 63.892C74.0417 66.2953 74.5378 72.8983 74.5378 72.8983ZM67.1123 61.1778C66.5394 58.3403 68.1814 55.3788 68.1814 55.3788L66.8658 55.5315C68.852 51.7978 73.875 50.6892 73.875 50.6892H74.6906C68.1527 54.2663 67.1123 61.1778 67.1123 61.1778ZM91.6154 41.3968C91.3363 40.2409 88.2376 37.9283 87.3608 37.5585C86.48 37.1856 87.0344 35.6591 87.0344 35.6591C87.5887 36.8631 91.0138 36.9096 91.8007 38.8059C92.5868 40.7045 91.6154 41.3968 91.6154 41.3968ZM85.4327 38.6206C84.5372 39.2222 83.2867 39.592 83.2867 39.8238C83.2867 39.8238 82.5944 39.4067 82.9642 38.4353C83.3348 37.4647 83.6573 37.2577 83.3813 37.153C83.1022 37.0476 82.6386 37.153 82.6386 37.153C82.6386 37.153 83.4247 36.2142 83.4247 35.9382C83.4247 35.6591 82.3161 36.3552 82.4533 35.4745C82.4533 35.4745 82.8704 35.3838 83.472 34.5031C83.472 34.5031 85.0303 34.3186 85.4327 34.9892C85.8312 35.6591 86.3242 38.019 85.4327 38.6206ZM96.6787 65.7263C99.4983 69.9809 111.951 71.6478 111.951 71.6478C111.951 71.6478 105.196 69.6111 99.8278 65.817C94.4606 62.0259 95.5119 55.5315 95.5119 55.5315C94.4312 56.5169 93.8443 56.8285 93.8443 56.8285L95.9104 54.143C97.5772 51.2148 96.4508 48.9789 96.4508 48.9789C94.0474 46.8477 93.859 43.5637 93.859 43.5637C92.7504 45.691 92.1488 45.8329 92.1488 45.8329C92.1488 45.8329 92.5178 44.6297 93.0729 43.3792C93.6303 42.1287 93.0729 38.7981 93.0729 38.7981C93.0729 38.7981 92.2426 36.439 88.633 34.9605C85.0233 33.4775 84.4682 30.6113 84.4682 30.6113C82.0618 29.6833 77.459 30.2376 77.459 30.2376L77.3908 29.2918L76.8791 29.6143C74.4983 31.3718 73.5269 31.0493 73.5269 31.0493C73.5269 30.564 72.8384 29.9624 72.8384 29.9624C72.8384 29.9624 71.6135 33.2782 70.6274 33.7201C70.8235 33.6736 74.5239 32.7743 75.1836 33.1077C75.1836 33.1077 74.5378 33.51 74.2882 34.2171C74.2882 34.2171 78.6374 31.9665 80.3988 32.2456C80.3988 32.2456 81.4137 32.1835 81.5982 32.4301C81.5982 32.4301 78.2382 33.8186 78.4235 34.2171C78.4235 34.2171 81.0439 34.1876 81.5982 34.4636C81.5982 34.4636 80.2756 35.7281 79.1631 35.9746C79.1631 35.9746 78.1157 36.3157 77.2489 35.9746C77.2489 35.9746 76.8791 37.1778 80.6454 37.2398C80.6454 37.2398 79.7786 38.4756 80.0577 38.9067C80.0577 38.9067 80.1198 39.4214 80.8369 39.1935C81.247 39.0594 81.3811 38.9284 81.4245 38.8384C81.3881 39.0881 81.2834 39.6967 81.0439 39.8633C80.7431 40.0703 80.9749 42.3132 80.9749 42.3132C80.9749 42.3132 81.0222 43.1947 81.7145 43.0784C81.7145 43.0784 81.8773 41.5961 82.4099 41.6216C82.9433 41.6433 82.9642 42.1031 82.6417 43.0892C82.3161 44.0715 80.3655 46.4957 80.3655 46.4957L80.0872 46.7423C80.7245 46.8508 81.2036 47.3075 81.2036 47.8509C81.2036 47.9672 81.1819 48.0765 81.1416 48.1812C83.1022 47.1485 84.5155 42.3132 84.5155 42.3132C84.9799 45.8251 83.6821 48.5324 82.0153 50.4899C81.9316 50.5837 81.8517 50.6783 81.7687 50.769C81.1485 51.4575 80.4927 52.0443 79.8624 52.5374C79.743 52.6312 79.6197 52.7227 79.4995 52.8095C77.9738 53.9399 76.6946 54.4841 76.6946 54.4841C77.6591 54.6035 78.608 54.4694 79.4995 54.1903C79.6228 54.1538 79.743 54.1143 79.8624 54.0701C81.0726 53.6391 82.1494 52.9692 82.9681 52.3676C83.0696 52.2909 83.1642 52.2188 83.2549 52.1498C84.0697 51.5187 84.5597 51.0117 84.5597 51.0117C84.5155 51.6241 84.2186 52.2366 83.7658 52.8312C83.693 52.9289 83.617 53.0227 83.5333 53.1212C82.5766 54.2445 81.1198 55.278 79.8624 56.0494C79.7391 56.1215 79.6197 56.1982 79.4995 56.2664C78.3149 56.9665 77.3908 57.3976 77.3908 57.3976L79.4995 57.3541L79.8624 57.3472L82.1091 57.303C83.2146 56.5169 84.1209 55.7052 84.8597 54.8965C84.9473 54.8027 85.0272 54.712 85.1063 54.6213C88.995 50.1457 87.9375 45.7856 87.9375 45.7856L87.3352 46.9888L86.7336 46.8477C87.7088 40.9255 86.1792 41.2953 86.1792 41.2953L86.0412 41.0193L85.3024 40.4649L85.5342 39.3524C86.5963 39.0299 88.6803 42.4078 88.6803 42.4078L88.7237 44.4886L89.0501 44.3506C91.4565 51.1962 87.6763 55.9625 87.6763 55.9625C89.4951 56.644 92.7644 53.4941 92.7644 53.4941C91.6557 58.2783 87.1507 58.9558 87.1507 58.9558L87.636 57.9953L85.0412 57.7379L83.4798 57.9844C83.4798 57.9883 83.4759 57.9922 83.4759 57.9953C82.2719 62.5515 79.5654 62.4097 79.5654 62.4097C75.4007 63.3958 72.1934 58.9853 72.1934 58.9853L72.6539 60.3118L72.3454 60.4963C69.3226 62.8741 69.4459 67.19 69.4459 67.19C69.4459 67.19 67.6883 65.527 68.4605 61.6995C69.2327 57.8759 73.3966 55.0059 73.3966 55.0059L71.6678 54.9764L73.6579 53.7732C75.6472 52.9111 77.9304 49.3301 77.9304 49.3301C77.9304 49.3301 77.7133 48.9316 76.3248 49.1774C74.9371 49.4239 72.871 48.8696 72.871 48.8696C72.4074 48.192 71.9763 48.8084 71.9763 48.8084C71.8236 49.979 70.156 51.1202 69.6025 51.0915C69.0474 51.059 68.7683 49.9503 68.7683 49.9503C68.7683 49.9503 68.214 49.0549 68.1814 49.6092C68.1527 50.1635 67.7821 50.2868 67.7821 50.2868C67.7821 50.2868 67.5364 50.2868 67.1449 50.3194C66.7534 50.3488 66.0866 49.6418 66.2386 49.0836C66.3944 48.5293 65.1586 48.2215 65.1586 48.2215C64.5423 46.4958 66.641 46.2167 66.641 46.2167C67.3511 45.8151 69.9715 47.7897 71.4825 47.975C72.9943 48.1595 72.933 47.5106 72.933 47.5106C73.9184 48.406 76.5101 48.192 76.5101 48.192C77.2311 48.2866 77.887 48.0362 78.394 47.7315C78.456 47.2532 78.891 46.8624 79.4639 46.7531C80.6485 43.6839 78.746 39.5486 78.746 39.5486C77.6009 43.3931 75.8612 44.1188 75.8612 44.1188C75.3069 44.3359 75.0317 43.9048 75.0317 43.9048C74.6619 42.7923 73.7044 42.5783 73.7044 42.5783C73.3641 43.2559 73.7339 44.3359 73.7339 44.3359C73.661 44.8181 74.9262 45.3871 75.372 45.5716C74.3316 45.1987 73.5486 45.2313 73.5486 45.2313C73.5486 45.9996 74.2882 46.7097 74.2882 46.7097C73.6719 46.6485 73.2113 46.0608 73.2113 46.0608L72.4686 46.3074C71.0189 46.833 70.3126 46.3074 70.3126 46.3074C69.6924 45.4771 67.6015 45.26 67.6015 45.26L67.0216 44.6731V43.0822C67.058 43.0853 67.2464 43.0381 67.3263 43.0272C67.3441 43.0272 67.3658 43.0272 67.3837 43.0202C68.207 42.821 69.2792 42.4837 69.794 42.1543C69.8777 42.1 69.9281 42.0093 69.9351 41.9186C69.9459 41.8496 69.932 41.7775 69.8917 41.7154C69.8234 41.6108 69.7436 41.5162 69.6598 41.4333C69.3482 41.1394 68.921 41.0053 68.4931 41.0053H66.2533C66.0572 41.0053 65.8587 41.0193 65.6626 41.0518C65.5757 41.0673 65.492 41.0813 65.416 41.096C65.2858 41.1177 65.1734 41.1433 65.0858 41.1642C64.9408 41.2007 64.7059 41.3968 64.6299 41.5418C64.4338 41.9147 64.5857 42.2953 64.6981 42.4946C64.7493 42.5853 64.7927 42.6396 64.7927 42.6396C64.8036 42.6721 64.8183 42.7016 64.8361 42.7272C64.9447 42.897 65.1803 42.9915 65.4594 43.0458C65.5106 43.0567 65.5649 43.0675 65.6223 43.0706C65.63 43.0745 65.637 43.0745 65.6447 43.0745L66.1773 43.1001V45.2313L65.8688 45.3546L65.4998 45.6623H65.1586L64.9741 45.4445C64.0787 45.1367 64.2345 44.1188 64.2345 44.1188H63.9267C63.6469 44.8902 64.4524 46.3546 64.4524 46.3546V46.619C64.4524 46.619 64.2632 47.5726 61.7994 48.4386C60.4504 48.9099 59.8674 48.8843 59.6139 48.7611C59.5597 48.689 59.4976 48.6239 59.4286 48.5618C59.4069 48.544 59.3821 48.5223 59.3527 48.4998C59.1278 48.337 58.8309 48.2355 58.5115 48.2355C57.7983 48.2355 57.2184 48.7324 57.2184 49.341C57.2184 49.7038 57.4246 50.0263 57.7432 50.2248C57.7727 50.2434 57.8014 50.2612 57.8339 50.276C58.0301 50.3814 58.2657 50.4426 58.5115 50.4426C58.8635 50.4426 59.1821 50.3232 59.4147 50.1279C59.5705 50.0798 59.6682 50.0403 59.6682 50.0403C61.2404 50.2248 64.2493 48.4673 64.2493 48.4673C64.064 49.2542 64.5679 49.5798 64.5679 49.5798C65.4881 50.4101 65.8688 50.2573 65.8688 50.2573C66.2712 51.5846 67.5976 51.7366 67.5976 51.7366C67.7496 50.4713 69.0621 51.8451 67.9961 52.5413C66.9348 53.2336 64.6656 56.1471 64.5749 59.804C64.4811 63.4571 65.8223 64.2005 66.8402 65.541C67.8589 66.8822 66.4712 67.6218 68.0907 70.4918C69.711 73.3588 69.6025 76.1055 69.9715 75.859C70.3413 75.6132 70.218 73.1448 70.218 73.1448C70.218 73.1448 71.8849 73.3913 73.3641 75.7365C74.8464 78.0778 73.9184 79.0957 74.1975 80.6067C74.4766 82.1185 77.6226 85.946 77.6226 85.946C72.4686 85.0506 70.3739 78.4182 70.3739 78.4182C69.4784 82.303 72.6245 84.5575 76.3868 87.8888C80.1484 91.2186 83.8527 88.8742 83.8527 88.8742C86.2265 85.0506 83.3596 83.6621 83.3596 83.6621L83.0193 84.8335C82.1928 84.9599 81.8517 83.5791 81.754 83.0574C81.7362 83.5466 81.0439 84.0939 81.0439 84.0939C79.9639 83.9706 79.3801 82.2131 79.3801 82.2131C79.5321 83.0465 78.8871 83.1985 78.8871 83.1985C77.2815 82.2131 77.2489 79.8067 77.2489 79.8067C77.7746 79.1903 80.8919 82.0573 80.8919 82.0573L81.2284 81.1331C81.4137 81.9332 85.3024 82.2743 85.3024 82.2743C86.2048 85.0436 84.7582 90.1061 84.69 90.3488C86.9987 87.4787 87.9841 82.6077 87.1212 77.708C86.2591 72.8045 83.6278 71.7826 83.6278 71.7826C84.7481 73.7681 85.0233 77.9398 85.0233 77.9398C82.5735 77.4328 80.9532 73.8697 80.9532 73.8697C80.3694 75.2613 80.8733 78.3569 80.902 78.5345C80.8121 78.4143 79.2894 76.3304 79.4236 73.6379C79.5616 70.905 85.6172 67.9009 85.8063 67.8102C84.6535 70.7678 85.5342 71.9703 85.5342 71.9703C86.0412 69.0095 93.6303 63.3198 93.6303 63.3198C94.5079 71.4632 99.1828 70.6298 99.1828 70.6298C96.5919 68.0854 96.6787 65.7263 96.6787 65.7263Z" fill="#1753AC"/>
<path d="M58.4249 49.8848H58.7877V49.7042H58.4249V49.8848Z" fill="#1753AC"/>
<path d="M58.7874 58.2204V49.8848H58.4245V58.2204H53.5977L58.323 49.8848H58.4245V49.7033H58.7874V49.8848H58.9145L63.5273 58.2204H58.7874ZM64.1398 58.5825L59.1277 49.5219H58.1129L52.9736 58.5825H61.7667C61.5923 59.2895 60.8023 61.8588 58.4757 62.2541C55.8475 62.7038 53.0426 59.771 52.8837 59.6012C53.3582 60.3842 53.8621 61.0036 54.3769 61.5037C56.4856 63.5481 59.8022 63.845 62.2412 62.2107C64.1693 60.9199 64.1259 59.1445 64.0607 58.5825H64.1398Z" fill="#1753AC"/>
<path d="M79.8623 57.6333V49.0658H80.4926L81.7687 50.7691L82.968 52.3677L83.5332 53.1213L84.8597 54.8966L86.911 57.6333H79.8623ZM79.4995 57.6333H72.8454L79.0545 49.0658H79.4995V57.6333ZM85.1062 54.6214L83.7658 52.8313L83.2541 52.1498L82.0152 50.49L80.6919 48.7247C80.4492 48.8844 80.1344 48.9821 79.7933 48.9821C79.4382 48.9821 79.1157 48.8774 78.8692 48.703L72.1352 57.9954H87.6359L85.1062 54.6214Z" fill="#1753AC"/>
<path d="M105.428 96.2604C105.428 96.2604 105.475 94.9665 106.029 94.6874C106.584 94.4122 106.722 92.0957 105.892 91.4034C105.058 90.7118 105.058 88.4426 105.38 88.1635C105.706 87.8883 106.12 87.3774 106.12 87.3774C106.12 87.3774 105.551 86.2068 105.036 85.909C104.852 85.8656 104.732 85.8517 104.732 85.8517C104.83 85.8191 104.931 85.8478 105.036 85.909C105.501 86.0184 106.399 86.323 107.094 87.1495C108.066 88.3054 109.081 90.9398 111.629 91.7267C114.173 92.5128 117.134 93.8106 119.352 98.8987L105.428 96.2604ZM104.362 104.546C103.684 111.207 97.8238 111.638 97.6393 111.638C97.4618 111.638 61.3676 111.917 57.8487 111.946V111.943C57.8487 111.943 59.1969 108.13 57.8123 98.2389L98.3169 96.2783C98.3169 96.2783 105.044 97.88 104.362 104.546ZM91.224 93.4842C90.9921 93.0237 91.0829 92.2848 91.0394 91.6832C90.9921 91.0809 91.5325 90.7552 91.5325 90.7552C91.5325 90.7552 91.4565 89.414 91.7318 88.0728C92.0108 86.7316 93.7211 82.7056 93.7211 82.7056C94.7871 82.5204 98.7658 82.3831 98.7658 82.3831C96.5919 82.9374 97.1462 83.6771 97.1462 83.6771C95.7112 89.6931 102.002 92.4694 101.818 92.8857C101.633 93.2997 101.818 95.6146 101.818 95.6146C99.8279 95.0611 99.2743 95.0611 99.2743 95.0611H91.0356C91.0356 95.0611 91.4565 93.9478 91.224 93.4842ZM138.97 102.693L125.709 99.9786C125.709 99.9786 123.179 96.0317 122.748 93.8106C122.316 91.5887 121.758 90.418 121.204 89.8598C120.649 89.3055 118.366 87.3014 118.366 85.5726V81.1613V80.7628C118.366 80.7628 120.787 83.3073 125.553 82.4265C130.318 81.5497 135.317 77.0625 132.029 69.9812C132.029 69.9812 129.855 66.2808 124.719 66.4653C119.584 66.6506 119.631 69.2889 119.631 69.2889C119.631 69.2889 120.882 67.8066 122.176 67.484L121.943 68.2702L123.009 67.5306C123.009 67.5306 123.658 67.1615 123.563 67.8531C123.472 68.5493 123.056 71.4162 121.943 72.1124C121.943 72.1124 121.805 69.5641 121.483 69.4734C121.157 69.3796 120.602 71.0464 120.74 71.3689C120.882 71.6953 120.555 73.9606 119.953 73.6846C119.352 73.4063 119.816 71.2309 119.816 71.2309C119.816 71.2309 118.01 74.2862 120.74 77.0625C120.74 77.0625 121.483 73.9133 122.687 72.6667C122.687 72.6667 123.056 73.3582 122.824 74.2397C122.592 75.1165 125.832 72.5721 124.814 69.0098L124.676 68.1329C124.676 68.1329 126.666 67.7158 128.608 69.0571C130.55 70.3975 131.243 71.3689 130.55 75.2111C129.855 79.0487 126.893 80.9481 123.009 79.9294C119.124 78.9115 119.262 78.7735 117.594 76.6462C116 74.6018 114.702 74.0513 114.597 74.0149C114.742 74.1637 117.054 76.5663 117.457 78.451C117.874 80.3938 116.717 86.7316 117.826 88.2581C118.939 89.7838 121.019 91.6832 120.327 93.9478C120.327 93.9478 115.467 89.6458 113.43 89.276C113.43 89.276 111.255 80.3248 104.413 76.45C104.464 76.4973 105.294 77.3385 105.428 80.1139C105.428 80.1139 99.1363 75.9717 97.7005 76.4461C97.7005 76.4461 97.378 78.5417 95.6205 79.8387C95.6205 79.8387 97.1462 75.2111 96.0802 73.5908C95.0189 71.9705 93.8769 67.7158 93.8769 67.7158C93.8769 67.7158 94.9863 75.2398 93.3839 78.2006C93.3839 78.2006 92.7024 75.9825 92.8264 74.1924C92.8264 74.1924 92.5179 74.3769 92.0868 78.451C91.6558 82.5204 88.695 92.3608 87.1507 92.1755C85.6102 91.991 84.2838 92.9151 83.8202 95.5976H82.896C82.896 95.5976 82.4316 93.564 85.0086 92.143H83.3271C83.3271 92.143 81.6308 92.636 81.475 95.5976H80.3989C80.3989 95.5976 80.2756 93.071 82.0332 92.2662C82.0332 92.2662 79.7174 91.7119 79.2244 95.5976V95.9084L57.8014 96.945L57.5727 96.9558V98.2498C57.5727 98.2498 58.8092 107.814 57.5727 111.946V113.367H138.539C138.539 113.367 142.92 112.718 142.858 107.597C142.858 107.597 143.565 104.451 138.97 102.693Z" fill="#1753AC"/>
<path d="M61.6106 99.0845C67.0646 98.9279 72.5186 98.8193 77.9726 98.6852C83.4282 98.5836 88.8822 98.4557 94.337 98.3767C88.8837 98.534 83.4289 98.6418 77.9749 98.7759C72.5202 98.8775 67.0662 99.0054 61.6106 99.0845Z" fill="#1753AC"/>
<path d="M64.1057 109.851L81.9128 109.421L99.7222 109.081L81.9151 109.512L64.1057 109.851Z" fill="#1753AC"/>
<path d="M61.1571 111.149L96.4442 110.386L61.1571 111.149Z" fill="#1753AC"/>
<path d="M62.6202 101.702C68.0742 101.546 73.529 101.437 78.983 101.303C84.4378 101.202 89.8918 101.073 95.3474 100.995C89.8933 101.152 84.4393 101.26 78.9846 101.394C73.5298 101.495 68.0758 101.623 62.6202 101.702Z" fill="#1753AC"/>
<path d="M60.7631 108.525L78.0128 108.106C83.7629 107.997 89.5131 107.863 95.264 107.778C89.5146 107.942 83.7645 108.056 78.0143 108.197L60.7631 108.525Z" fill="#1753AC"/>
<path d="M63.5961 105.833L81.059 105.409L98.5243 105.077L81.0614 105.5L63.5961 105.833Z" fill="#1753AC"/>
<path d="M60.6157 100.468L79.6733 100.011L98.7325 99.6443L79.6749 100.101L60.6157 100.468Z" fill="#1753AC"/>
<path d="M60.5412 103.086L79.5988 102.629L98.6587 102.262L79.6003 102.719L60.5412 103.086Z" fill="#1753AC"/>
<path d="M61.3972 107.25L80.8486 106.784L100.303 106.408L80.8509 106.875L61.3972 107.25Z" fill="#1753AC"/>
<path d="M60.5064 104.53L80.3688 104.055L100.233 103.67L80.3711 104.145L60.5064 104.53Z" fill="#1753AC"/>
<path d="M72.2868 43.6294C72.2868 43.8216 72.1627 43.9767 72.0092 43.9767C71.8557 43.9767 71.7317 43.8216 71.7317 43.6294C71.7317 43.4379 71.8557 43.2828 72.0092 43.2828C72.1627 43.2828 72.2868 43.4379 72.2868 43.6294Z" fill="#1753AC"/>
<path d="M70.575 44.3236C70.575 44.5151 70.4502 44.6702 70.2975 44.6702C70.144 44.6702 70.0199 44.5151 70.0199 44.3236C70.0199 44.1314 70.144 43.9763 70.2975 43.9763C70.4502 43.9763 70.575 44.1314 70.575 44.3236Z" fill="#1753AC"/>
<path d="M65.0176 44.3235C65.0176 44.4189 64.9672 44.4956 64.9044 44.4956C64.8416 44.4956 64.7912 44.4189 64.7912 44.3235C64.7912 44.2281 64.8416 44.1514 64.9044 44.1514C64.9672 44.1514 65.0176 44.2281 65.0176 44.3235Z" fill="#1753AC"/>
<path d="M64.2105 43.4133C64.2105 43.466 64.1803 43.5094 64.1446 43.5094C64.1082 43.5094 64.0787 43.466 64.0787 43.4133C64.0787 43.3605 64.1082 43.3171 64.1446 43.3171C64.1803 43.3171 64.2105 43.3605 64.2105 43.4133Z" fill="#1753AC"/>
<path d="M71.9514 45.0755C71.9514 45.2669 71.8266 45.422 71.6738 45.422C71.5203 45.422 71.3963 45.2669 71.3963 45.0755C71.3963 44.884 71.5203 44.7281 71.6738 44.7281C71.8266 44.7281 71.9514 44.884 71.9514 45.0755Z" fill="#1753AC"/>
<path d="M139.353 17.5621C139.353 17.5621 154.945 19.1041 159.881 39.0913C159.881 39.0913 151.712 34.2025 146.926 26.8157C142.129 19.4127 139.353 17.5621 139.353 17.5621Z" fill="#1753AC"/>
<path d="M155.361 25.1959C155.361 25.1959 166.234 28.728 167.345 39.091C168.455 49.4555 167.345 55.9321 167.345 55.9321C167.345 55.9321 163.212 50.1339 155.993 45.0133C148.776 39.8934 147.727 33.2928 147.542 30.8251C147.542 30.8251 150.195 35.5139 155.007 38.1661C159.818 40.8183 163.15 44.952 163.15 44.952C163.15 44.952 160.38 27.6659 155.361 25.1959Z" fill="#1753AC"/>
<path d="M168.27 36.0688C168.27 36.0688 179.096 46.9876 174.1 62.5333C169.102 78.079 170.213 75.7663 170.213 75.7663C170.213 75.7663 166.789 66.5127 162.44 62.0712C158.091 57.6297 154.204 49.3933 155.037 46.155C155.037 46.155 161.269 51.9486 165.726 56.7041C169.195 60.4052 169.195 64.1296 169.195 64.1296C169.195 64.1296 170.737 37.9193 168.27 36.0688Z" fill="#1753AC"/>
<path d="M177.646 57.9067C177.646 57.9067 183.168 74.6556 173.821 86.87C164.476 99.0843 165.864 97.6966 165.864 97.6966C165.864 97.6966 166.049 87.6561 164.245 83.8945C162.517 80.2918 158.924 64.9392 160.034 62.0707C160.034 62.0707 160.435 62.0971 161.608 64.8469C162.81 67.6689 167.838 74.8099 168.948 78.387C170.059 81.9656 169.537 85.1116 169.537 85.1116C169.537 85.1116 172.295 76.3263 174.007 73.0826C176.351 68.6403 177.646 57.9067 177.646 57.9067Z" fill="#1753AC"/>
<path d="M179.266 81.7185C179.266 81.7185 181.224 86.5919 178.017 94.0569C174.809 101.52 170.553 107.258 153.773 116.696C153.773 116.696 156.734 112.687 157.475 96.6781C157.475 96.6781 158.584 82.8295 161.36 79.7447C161.36 79.7447 162.209 89.8573 163.026 93.2545C164.105 97.7433 163.335 101.829 161.114 107.258C161.114 107.258 169.935 95.4136 173.513 92.6994C177.835 89.4201 179.266 81.7185 179.266 81.7185Z" fill="#1753AC"/>
<path d="M155.562 97.3877C155.562 97.3877 150.75 102.816 149.084 106.333C147.418 109.849 144.766 118.238 144.272 119.966C143.779 121.693 140.201 128.047 137.487 130.206C137.487 130.206 144.264 129.385 151.217 127.706C158.374 125.979 172.526 116.203 174.254 104.174C174.254 104.174 170.284 110.206 165.679 112.933C160.99 115.71 151.176 120.185 146.246 124.778C146.246 124.778 151.861 119.287 152.848 110.897C153.834 102.508 155.562 97.3877 155.562 97.3877Z" fill="#1753AC"/>
<path d="M161.793 124.593C161.793 124.593 157.227 135.882 142.854 138.473C142.854 138.473 137.549 139.46 126.63 136.931L115.711 134.401C115.711 134.401 122.496 133.661 126.876 129.651C131.256 125.642 141.709 115.697 144.07 114.963C144.07 114.963 141.558 119.473 140.139 122.803C138.721 126.135 135.882 131.378 128.851 133.476C128.851 133.476 144.704 132.303 151.244 130.885C157.782 129.466 161.793 124.593 161.793 124.593Z" fill="#1753AC"/>
<path d="M78.4197 153.401C78.4197 153.401 90.727 137.763 102.941 136.652C102.941 136.652 104.976 136.098 108.401 138.226C111.824 140.354 120.06 148.127 129.22 147.664C138.381 147.201 143.748 144.889 148.098 139.336C148.098 139.336 141.435 144.287 129.59 141.511C129.59 141.511 115.432 135.08 110.02 134.524C104.607 133.969 91.4054 132.982 75.0573 150.564L78.4197 153.401Z" fill="#1753AC"/>
<path d="M53.5286 17.5621C53.5286 17.5621 37.9372 19.1041 33.0018 39.0913C33.0018 39.0913 41.17 34.2025 45.9565 26.8157C50.7524 19.4127 53.5286 17.5621 53.5286 17.5621Z" fill="#1753AC"/>
<path d="M37.5205 25.1959C37.5205 25.1959 26.6482 28.728 25.5372 39.091C24.4271 49.4555 25.5372 55.9321 25.5372 55.9321C25.5372 55.9321 29.671 50.1339 36.8879 45.0133C44.1057 39.8934 45.1546 33.2928 45.3391 30.8251C45.3391 30.8251 42.6869 35.5139 37.8756 38.1661C33.0635 40.8183 29.7322 44.952 29.7322 44.952C29.7322 44.952 32.5022 27.6659 37.5205 25.1959Z" fill="#1753AC"/>
<path d="M24.612 36.0688C24.612 36.0688 13.7854 46.9876 18.782 62.5333C23.7794 78.079 22.6692 75.7663 22.6692 75.7663C22.6692 75.7663 26.0928 66.5127 30.442 62.0712C34.7905 57.6297 38.6769 49.3933 37.8443 46.155C37.8443 46.155 31.6135 51.9486 27.1557 56.7041C23.6871 60.4052 23.6871 64.1296 23.6871 64.1296C23.6871 64.1296 22.1443 37.9193 24.612 36.0688Z" fill="#1753AC"/>
<path d="M15.2354 57.9067C15.2354 57.9067 9.71398 74.6556 19.0598 86.87C28.4057 99.0843 27.018 97.6966 27.018 97.6966C27.018 97.6966 26.8327 87.6561 28.6367 83.8945C30.364 80.2918 33.9581 64.9392 32.8472 62.0707C32.8472 62.0707 32.4464 62.0971 31.2742 64.8469C30.0717 67.6689 25.0441 74.8099 23.9332 78.387C22.823 81.9656 23.3447 85.1116 23.3447 85.1116C23.3447 85.1116 20.5871 76.3263 18.8745 73.0826C16.5309 68.6403 15.2354 57.9067 15.2354 57.9067Z" fill="#1753AC"/>
<path d="M13.6156 81.7185C13.6156 81.7185 11.6573 86.5919 14.8653 94.0569C18.0734 101.52 22.3296 107.258 39.1087 116.696C39.1087 116.696 36.148 112.687 35.4076 96.6781C35.4076 96.6781 34.2974 82.8295 31.5212 79.7447C31.5212 79.7447 30.6722 89.8573 29.8559 93.2545C28.7759 97.7433 29.5473 101.829 31.7685 107.258C31.7685 107.258 22.9467 95.4136 19.3681 92.6994C15.0459 89.4201 13.6156 81.7185 13.6156 81.7185Z" fill="#1753AC"/>
<path d="M37.3198 97.3877C37.3198 97.3877 42.1319 102.816 43.7972 106.333C45.4625 109.849 48.1154 118.238 48.6093 119.966C49.1024 121.693 52.6802 128.047 55.3944 130.206C55.3944 130.206 48.6178 129.385 41.6644 127.706C34.5087 125.979 20.3554 116.203 18.6281 104.174C18.6281 104.174 22.5975 110.206 27.2026 112.933C31.8914 115.71 41.7055 120.185 46.6347 124.778C46.6347 124.778 41.021 119.287 40.0341 110.897C39.0471 102.508 37.3198 97.3877 37.3198 97.3877Z" fill="#1753AC"/>
<path d="M31.0894 124.593C31.0894 124.593 35.6542 135.882 50.0276 138.473C50.0276 138.473 55.3328 139.46 66.2516 136.931L77.1713 134.401C77.1713 134.401 70.3854 133.661 66.0059 129.651C61.6256 125.642 51.1735 115.697 48.8112 114.963C48.8112 114.963 51.3239 119.473 52.7426 122.803C54.1613 126.135 56.9988 131.378 64.0313 133.476C64.0313 133.476 48.1778 132.303 41.6384 130.885C35.0991 129.466 31.0894 124.593 31.0894 124.593Z" fill="#1753AC"/>
<path d="M114.462 153.401C114.462 153.401 102.155 137.763 89.9411 136.652C89.9411 136.652 87.9052 136.098 84.4816 138.226C81.0573 140.354 72.8224 148.127 63.6611 147.664C54.5005 147.201 49.1333 144.889 44.7849 139.336C44.7849 139.336 51.4467 144.287 63.2913 141.511C63.2913 141.511 77.4484 135.08 82.8621 134.524C88.275 133.969 101.476 132.982 117.824 150.564L114.462 153.401Z" fill="#1753AC"/>
<path d="M64.9214 17.5731C65.9695 17.1389 66.6308 16.3908 66.9084 15.3256C67.1859 14.2611 67.0006 12.9006 66.3517 11.2446C65.7362 9.67156 64.9656 8.57068 64.0368 7.94194C63.1104 7.3132 62.0226 7.24188 60.7776 7.72952C60.5132 7.8334 60.2698 7.94737 60.0442 8.07141C59.8186 8.19623 59.6612 8.28228 59.5705 8.32958L63.3615 18.0181C63.7585 17.9731 64.2779 17.8258 64.9214 17.5731ZM57.3424 9.40255L56.0748 9.66071L55.691 8.68L58.0029 7.77448C58.3502 7.63881 58.8123 7.43337 59.386 7.1597C59.5185 7.0969 59.724 7.00464 59.9992 6.8837C60.2752 6.76431 60.5241 6.66043 60.745 6.5736C62.6871 5.81383 64.3314 5.73011 65.6773 6.32318C67.0224 6.91704 68.0442 8.10475 68.7427 9.88864C69.2303 11.1345 69.4234 12.3362 69.3233 13.4952C69.2226 14.655 68.8357 15.6791 68.162 16.5691C67.4883 17.4607 66.5603 18.1367 65.378 18.5988C65.071 18.7189 64.5834 18.8848 63.9128 19.0988C63.2832 19.2973 62.8584 19.4392 62.6367 19.526L60.2302 20.4672L59.8589 19.5167L61.0474 18.8701L57.3424 9.40255Z" fill="#1753AC"/>
<path d="M76.173 9.25188C76.1187 8.93867 76.0722 8.69989 76.0311 8.53398C75.6706 7.07105 75 6.45859 74.0208 6.70047C73.4813 6.83382 73.1169 7.15091 72.9254 7.65328C72.7331 8.15565 72.7541 8.9503 72.9866 10.0372L76.173 9.25188ZM72.7145 14.7191C71.7943 14.0407 71.1524 12.9646 70.7888 11.4901C70.5445 10.4985 70.5174 9.59532 70.7074 8.77897C70.8965 7.96106 71.2795 7.27727 71.8563 6.72683C72.4323 6.17562 73.1611 5.79186 74.041 5.57479C75.1411 5.30344 76.0598 5.3833 76.7971 5.81512C77.5336 6.24694 78.0445 6.99353 78.3298 8.05487C78.5081 8.78129 78.5965 9.33173 78.5957 9.70541L73.2316 11.028C73.5223 12.018 73.9511 12.7383 74.517 13.1879C75.083 13.6383 75.7621 13.7655 76.5552 13.5709C76.9839 13.4647 77.4088 13.284 77.8313 13.0282C78.2523 12.7724 78.5701 12.5127 78.7856 12.2506L79.4221 13.0561C79.2035 13.4492 78.7942 13.8616 78.1949 14.295C77.5956 14.7291 76.9552 15.0299 76.273 15.1982C74.8201 15.5564 73.634 15.3959 72.7145 14.7191Z" fill="#1753AC"/>
<path d="M85.0337 1.89475L83.6266 1.78311L83.5444 0.732623L92.9003 -4.76837e-06L93.3096 3.05532L91.9537 3.15999L91.1815 1.34509L87.5052 1.44509L87.8812 6.2409L90.4024 5.99359L90.6071 4.47639L91.6917 4.39189L92.0297 8.69617L90.9614 8.78068L90.5032 7.28208L87.9735 7.41155L88.3185 11.836L90.9257 11.8011L91.0048 12.819L84.615 13.3191L84.5352 12.3012L85.8268 12.029L85.0337 1.89475Z" fill="#1753AC"/>
<path d="M100.693 7.21684C100.726 6.90053 100.746 6.65787 100.752 6.48731C100.807 4.98097 100.331 4.20957 99.3236 4.17159C98.7693 4.15143 98.3297 4.35688 98.008 4.78792C97.6862 5.21742 97.4878 5.98726 97.4126 7.0959L100.693 7.21684ZM95.8636 11.5219C95.1658 10.6179 94.8441 9.40619 94.8999 7.88899C94.9379 6.86797 95.1596 5.99191 95.5667 5.25929C95.9737 4.52588 96.5295 3.97389 97.235 3.60254C97.9405 3.23041 98.746 3.06218 99.6523 3.09552C100.785 3.1366 101.646 3.46687 102.236 4.08321C102.826 4.70109 103.112 5.55932 103.095 6.65864C103.067 7.40678 103.001 7.95954 102.897 8.31927L97.3754 8.11537C97.3831 9.14803 97.5963 9.95896 98.0181 10.5458C98.439 11.135 99.0569 11.4436 99.8717 11.4746C100.314 11.4901 100.773 11.4327 101.248 11.3033C101.723 11.1738 102.101 11.0118 102.38 10.818L102.77 11.7677C102.453 12.0847 101.946 12.37 101.251 12.622C100.554 12.8732 99.8562 12.9872 99.1546 12.9616C97.6583 12.9057 96.5621 12.4266 95.8636 11.5219Z" fill="#1753AC"/>
<path d="M106.053 5.363L105.028 4.88854L105.214 3.73106L108.057 3.82642L108.107 3.8334L108.473 4.23654L108.367 4.89164L108.287 5.29168C108.738 4.98545 109.297 4.74899 109.967 4.58076C110.637 4.41252 111.291 4.37996 111.929 4.48307C112.612 4.59316 113.125 4.80481 113.471 5.11724C113.817 5.432 114.03 5.87003 114.113 6.4352C114.193 6.99804 114.16 7.74075 114.013 8.65789L113.268 13.2909L114.27 13.5894L114.109 14.5964L109.778 13.901L109.94 12.8932L110.867 12.9048L111.613 8.27258C111.706 7.69035 111.74 7.22752 111.715 6.88485C111.69 6.54218 111.586 6.27859 111.403 6.09408C111.22 5.90956 110.939 5.78707 110.559 5.7266C109.92 5.62349 109.194 5.78862 108.379 6.2189L107.395 12.3288L108.378 12.642L108.217 13.6491L103.836 12.9451L103.998 11.9373L104.995 11.9427L106.053 5.363Z" fill="#1753AC"/>
<path d="M120.528 14.9971C120.849 14.9335 121.121 14.8227 121.347 14.6637L123.119 8.73604C123.075 8.60501 122.943 8.46392 122.72 8.31506C122.499 8.16621 122.248 8.04915 121.965 7.96464C121.27 7.75765 120.624 7.89177 120.026 8.36933C119.427 8.84767 118.93 9.74853 118.534 11.0735C118.203 12.1805 118.135 13.0566 118.333 13.7024C118.531 14.3459 118.923 14.7568 119.51 14.932C119.867 15.039 120.207 15.0614 120.528 14.9971ZM116.593 15.0095C116.158 14.5304 115.882 13.9063 115.769 13.1388C115.655 12.3713 115.749 11.4828 116.051 10.4734C116.324 9.56014 116.761 8.78333 117.362 8.13985C117.961 7.49793 118.692 7.06301 119.553 6.83508C120.413 6.6087 121.354 6.64591 122.375 6.95137C122.787 7.07464 123.165 7.23512 123.509 7.43359L124.332 4.67984L122.804 3.97512L123.071 3.07813L126.524 3.75649L126.573 3.772L126.927 4.24956L123.331 16.2701L124.211 16.5329L123.934 17.4617C123.103 17.3911 122.433 17.2795 121.923 17.1268C121.575 17.0221 121.345 16.8911 121.233 16.7337C121.12 16.5763 121.114 16.3298 121.215 15.9918L121.351 15.5359C120.956 15.8313 120.477 16.029 119.915 16.1267C119.353 16.2251 118.8 16.1926 118.257 16.0305C117.584 15.829 117.029 15.4886 116.593 15.0095Z" fill="#1753AC"/>
<path d="M132.563 16.2519C133.084 15.0704 133.341 14.1091 133.335 13.3679C133.327 12.6283 133.007 12.1182 132.376 11.8383C131.173 11.3065 130.072 12.1717 129.073 14.4316C128.551 15.6131 128.301 16.5775 128.324 17.3241C128.348 18.073 128.674 18.5855 129.307 18.8654C130.478 19.3832 131.563 18.5118 132.563 16.2519ZM128.309 11.3042C128.999 10.7925 129.749 10.5072 130.555 10.4491C131.361 10.3901 132.148 10.5305 132.915 10.8693C134.222 11.4461 135.052 12.2942 135.407 13.4106C135.762 14.5277 135.635 15.7759 135.026 17.1551C134.59 18.1397 134.026 18.8909 133.333 19.4088C132.639 19.9259 131.894 20.2105 131.097 20.2601C130.3 20.3105 129.513 20.1647 128.735 19.8213C127.44 19.2483 126.612 18.4025 126.251 17.283C125.892 16.1628 126.016 14.913 126.626 13.5354C127.056 12.5601 127.617 11.8174 128.309 11.3042Z" fill="#1753AC"/>
</svg>
