<svg width="20" height="20" viewBox="0 0 20 20" fill="none" xmlns="http://www.w3.org/2000/svg">
<path d="M10 10C10.6593 10 11.3037 9.80451 11.8519 9.43824C12.4001 9.07197 12.8273 8.55137 13.0796 7.94228C13.3319 7.3332 13.3979 6.66297 13.2693 6.01637C13.1407 5.36977 12.8232 4.77582 12.357 4.30965C11.8908 3.84347 11.2969 3.52601 10.6503 3.39739C10.0037 3.26877 9.33348 3.33478 8.72439 3.58707C8.1153 3.83937 7.59471 4.26661 7.22844 4.81477C6.86217 5.36294 6.66667 6.0074 6.66667 6.66667C6.66667 7.55073 7.01786 8.39857 7.64298 9.0237C8.2681 9.64882 9.11595 10 10 10ZM10 5.00001C10.3296 5.00001 10.6519 5.09775 10.926 5.28089C11.2 5.46403 11.4137 5.72432 11.5398 6.02887C11.6659 6.33341 11.699 6.66852 11.6346 6.99182C11.5703 7.31512 11.4116 7.6121 11.1785 7.84518C10.9454 8.07827 10.6485 8.23701 10.3252 8.30132C10.0019 8.36562 9.66674 8.33262 9.3622 8.20647C9.05765 8.08033 8.79735 7.8667 8.61422 7.59262C8.43108 7.31854 8.33334 6.99631 8.33334 6.66667C8.33334 6.22464 8.50893 5.80072 8.82149 5.48816C9.13405 5.1756 9.55797 5.00001 10 5.00001ZM13.3333 18.3583L20 19.9817V11.2358C19.9998 10.6991 19.8269 10.1766 19.5068 9.74574C19.1867 9.31487 18.7364 8.99847 18.2225 8.84334L16.4725 8.26001C16.6005 7.74022 16.6657 7.20697 16.6667 6.67167C16.6667 4.90356 15.9643 3.20787 14.714 1.95763C13.4638 0.707384 11.7681 0.00500488 10 0.00500488C8.23189 0.00500488 6.5362 0.707384 5.28596 1.95763C4.03571 3.20787 3.33333 4.90356 3.33333 6.67167C3.3358 7.00995 3.36366 7.34757 3.41667 7.68167C3.03823 7.5308 2.62858 7.47496 2.22356 7.51904C1.81854 7.56312 1.4305 7.70578 1.09337 7.93453C0.756246 8.16329 0.480311 8.47116 0.289705 8.83123C0.0990992 9.19131 -0.000369342 9.5926 1.03053e-06 10V18.1267L6.6525 20.0275L13.3333 18.3583ZM6.46417 3.13667C7.40354 2.21063 8.67078 1.69331 9.98985 1.6974C11.3089 1.7015 12.5729 2.22667 13.5065 3.15851C14.4402 4.09036 14.9677 5.35338 14.9743 6.67244C14.9809 7.9915 14.4659 9.25973 13.5417 10.2008L10 13.6667L6.46417 10.2075C5.52656 9.26983 4.99982 7.99811 4.99982 6.67209C4.99982 5.34606 5.52656 4.07434 6.46417 3.13667V3.13667ZM1.66667 10C1.66562 9.86256 1.69909 9.72706 1.76403 9.60592C1.82897 9.48478 1.92329 9.38188 2.03833 9.30667C2.15868 9.22769 2.29732 9.18099 2.44092 9.17107C2.58453 9.16115 2.72827 9.18833 2.85833 9.25001L4.05333 9.68167C4.37305 10.3148 4.79132 10.8931 5.2925 11.395L10 16L14.7142 11.3892C15.1777 10.9263 15.5708 10.3979 15.8808 9.82084L17.7283 10.4383C17.9023 10.4881 18.0554 10.5932 18.1644 10.7377C18.2734 10.8821 18.3324 11.0582 18.3325 11.2392V17.8633L13.3333 16.6417L6.68334 18.3083L1.66667 16.8717V10Z" fill="white"/>
</svg>
