<svg width="20" height="20" viewBox="0 0 20 20" fill="none" xmlns="http://www.w3.org/2000/svg">
<path d="M18.9725 6.99331L12.9458 1.21997C12.1666 0.440995 11.1106 0.00235201 10.0088 9.43101e-06C8.90704 -0.00233315 7.84917 0.431816 7.06667 1.20747L1.0275 6.99331C0.703392 7.3049 0.445373 7.67859 0.268839 8.09208C0.0923049 8.50556 0.000873341 8.95038 0 9.39997L0 20H20V9.39997C19.9991 8.95038 19.9077 8.50556 19.7312 8.09208C19.5546 7.67859 19.2966 7.3049 18.9725 6.99331V6.99331ZM8.2325 2.39831C8.7102 1.93992 9.34731 1.68508 10.0094 1.68756C10.6714 1.69005 11.3066 1.94968 11.7808 2.41164L17.4042 7.79831L11.7675 13.435C11.2911 13.8891 10.6582 14.1424 10 14.1424C9.34183 14.1424 8.7089 13.8891 8.2325 13.435L2.59583 7.79831L8.2325 2.39831ZM18.3333 18.3333H1.66667V9.39997C1.66667 9.34664 1.6775 9.29497 1.6825 9.24164L7.05417 14.6133C7.83553 15.3944 8.89515 15.8332 10 15.8332C11.1049 15.8332 12.1645 15.3944 12.9458 14.6133L18.3175 9.24164C18.3225 9.29497 18.3333 9.34664 18.3333 9.39997V18.3333Z" fill="white"/>
</svg>
