<svg width="32" height="32" viewBox="0 0 32 32" fill="none" xmlns="http://www.w3.org/2000/svg">
<path d="M16 16.0001C17.0548 16.0001 18.086 15.6873 18.963 15.1012C19.8401 14.5152 20.5237 13.6822 20.9274 12.7077C21.331 11.7332 21.4366 10.6608 21.2309 9.62624C21.0251 8.59168 20.5171 7.64137 19.7712 6.89549C19.0254 6.14961 18.075 5.64166 17.0405 5.43587C16.0059 5.23008 14.9336 5.3357 13.959 5.73937C12.9845 6.14303 12.1515 6.82662 11.5655 7.70368C10.9795 8.58074 10.6667 9.61189 10.6667 10.6667C10.6667 12.0812 11.2286 13.4378 12.2288 14.438C13.229 15.4382 14.5855 16.0001 16 16.0001ZM16 8.00006C16.5274 8.00006 17.043 8.15646 17.4815 8.44947C17.9201 8.74249 18.2618 9.15897 18.4637 9.64624C18.6655 10.1335 18.7183 10.6697 18.6154 11.187C18.5125 11.7042 18.2586 12.1794 17.8856 12.5523C17.5127 12.9253 17.0375 13.1793 16.5202 13.2822C16.003 13.385 15.4668 13.3322 14.9795 13.1304C14.4922 12.9286 14.0758 12.5868 13.7827 12.1482C13.4897 11.7097 13.3333 11.1941 13.3333 10.6667C13.3333 9.95948 13.6143 9.2812 14.1144 8.78111C14.6145 8.28101 15.2928 8.00006 16 8.00006ZM21.3333 29.3734L32 31.9707V17.9774C31.9997 17.1186 31.723 16.2826 31.2108 15.5932C30.6987 14.9038 29.9782 14.3976 29.156 14.1494L26.356 13.2161C26.5607 12.3844 26.665 11.5312 26.6667 10.6747C26.6667 7.84575 25.5429 5.13264 23.5425 3.13225C21.5421 1.13186 18.829 0.00805664 16 0.00805664C13.171 0.00805664 10.4579 1.13186 8.45753 3.13225C6.45714 5.13264 5.33334 7.84575 5.33334 10.6747C5.33728 11.216 5.38185 11.7562 5.46667 12.2907C4.86116 12.0493 4.20572 11.96 3.5577 12.0305C2.90967 12.101 2.2888 12.3293 1.7494 12.6953C1.20999 13.0613 0.768497 13.5539 0.463528 14.13C0.158559 14.7061 -0.000590947 15.3482 1.64885e-06 16.0001V29.0027L10.644 32.0441L21.3333 29.3734ZM10.3427 5.01872C11.8457 3.53706 13.8733 2.70935 15.9838 2.7159C18.0943 2.72244 20.1167 3.56272 21.6105 5.05367C23.1042 6.54463 23.9483 8.56546 23.9589 10.676C23.9694 12.7865 23.1455 14.8156 21.6667 16.3214L16 21.8667L10.3427 16.3321C8.84249 14.8318 7.99971 12.797 7.99971 10.6754C7.99971 8.55375 8.84249 6.519 10.3427 5.01872ZM2.66667 16.0001C2.66498 15.7801 2.71855 15.5633 2.82245 15.3695C2.92635 15.1757 3.07726 15.0111 3.26134 14.8907C3.45389 14.7644 3.67571 14.6896 3.90547 14.6738C4.13524 14.6579 4.36523 14.7014 4.57334 14.8001L6.48534 15.4907C6.99688 16.5037 7.66611 17.429 8.468 18.2321L16 25.6001L23.5427 18.2227C24.2843 17.4821 24.9133 16.6367 25.4093 15.7134L28.3653 16.7014C28.6438 16.781 28.8887 16.9491 29.0631 17.1803C29.2375 17.4115 29.3319 17.6931 29.332 17.9827V28.5814L21.3333 26.6267L10.6933 29.2934L2.66667 26.9947V16.0001Z" fill="#BE9140"/>
</svg>
