<svg width="32" height="28" viewBox="0 0 32 28" fill="none" xmlns="http://www.w3.org/2000/svg">
<path d="M27.9996 14.5649V12.6663C27.9996 9.48366 26.7353 6.43141 24.4849 4.18098C22.2345 1.93054 19.1822 0.66626 15.9996 0.66626C12.817 0.66626 9.76476 1.93054 7.51433 4.18098C5.26389 6.43141 3.99961 9.48366 3.99961 12.6663V14.5649C2.60115 15.1807 1.45668 16.2582 0.757771 17.617C0.0588655 18.9758 -0.152043 20.5335 0.160352 22.0292C0.472748 23.525 1.28949 24.868 2.47384 25.8335C3.65819 26.799 5.13826 27.3284 6.66628 27.3329H9.33294V13.9996H6.66628V12.6663C6.66628 10.1909 7.64961 7.81693 9.39995 6.0666C11.1503 4.31626 13.5243 3.33293 15.9996 3.33293C18.475 3.33293 20.8489 4.31626 22.5993 6.0666C24.3496 7.81693 25.3329 10.1909 25.3329 12.6663V13.9996H22.6663V24.6663H17.3329V27.3329H25.3329C26.861 27.3284 28.341 26.799 29.5254 25.8335C30.7097 24.868 31.5265 23.525 31.8389 22.0292C32.1513 20.5335 31.9404 18.9758 31.2414 17.617C30.5425 16.2582 29.3981 15.1807 27.9996 14.5649ZM6.66628 24.6663C5.60541 24.6663 4.58799 24.2448 3.83785 23.4947C3.0877 22.7445 2.66628 21.7271 2.66628 20.6663C2.66628 19.6054 3.0877 18.588 3.83785 17.8378C4.58799 17.0877 5.60541 16.6663 6.66628 16.6663V24.6663ZM25.3329 24.6663V16.6663C26.3938 16.6663 27.4112 17.0877 28.1614 17.8378C28.9115 18.588 29.3329 19.6054 29.3329 20.6663C29.3329 21.7271 28.9115 22.7445 28.1614 23.4947C27.4112 24.2448 26.3938 24.6663 25.3329 24.6663Z" fill="#BE9140"/>
</svg>
