<svg width="20" height="20" viewBox="0 0 20 20" fill="none" xmlns="http://www.w3.org/2000/svg">
<path d="M11.8333 13.5517C9.40721 12.5232 7.47778 10.5893 6.45493 8.16083L9.29326 5.3225L4.07243 0.101667L1.42993 2.74417C0.971436 3.20483 0.608945 3.75192 0.363474 4.35373C0.118002 4.95553 -0.0055666 5.60008 -6.8406e-05 6.25C-6.8406e-05 12.29 7.70993 20 13.7499 20C14.3999 20.0055 15.0444 19.8819 15.6462 19.6365C16.248 19.391 16.7951 19.0285 17.2558 18.57L19.8983 15.9275L14.6774 10.7067L11.8333 13.5517ZM16.0783 17.3917C15.7718 17.6949 15.4081 17.9342 15.0085 18.0959C14.6088 18.2575 14.181 18.3382 13.7499 18.3333C8.55577 18.3333 1.6666 11.4442 1.6666 6.25C1.66183 5.81905 1.7426 5.39143 1.90424 4.99191C2.06588 4.59238 2.30518 4.2289 2.60827 3.9225L4.07243 2.45833L6.9366 5.3225L4.49076 7.76833L4.69576 8.28C5.29662 9.88773 6.23605 11.3475 7.45041 12.5604C8.66476 13.7733 10.1257 14.7111 11.7341 15.31L12.2391 15.5025L14.6774 13.0633L17.5416 15.9275L16.0783 17.3917ZM19.9999 2.08333V5.83333H18.3333V2.86917L13.6741 7.52833L12.4999 6.35L17.1791 1.66667H14.1666V0H17.9408C18.4899 0.00374594 19.0152 0.225212 19.4012 0.615795C19.7873 1.00638 20.0026 1.53417 19.9999 2.08333V2.08333Z" fill="white"/>
</svg>
