<svg width="162" height="150" viewBox="0 0 162 150" fill="none" xmlns="http://www.w3.org/2000/svg">
<path d="M9.38726 138.42L5.64694 148.38H3.75477L0 138.42H1.74829L4.70086 146.703L7.66723 138.42H9.38726Z" fill="white"/>
<path d="M15.5644 146.596C15.9652 146.238 16.2043 145.753 16.2812 145.141H11.9102C11.9194 145.743 12.1342 146.226 12.5547 146.588C12.9752 146.952 13.4955 147.133 14.1164 147.133C14.6801 147.133 15.163 146.954 15.5644 146.596ZM16.0729 140.863C16.6701 141.202 17.1386 141.681 17.4776 142.296C17.8166 142.913 17.9868 143.627 17.9868 144.439C17.9868 145.251 17.8219 145.965 17.4921 146.582C17.1629 147.197 16.6991 147.674 16.1018 148.008C15.5046 148.342 14.8187 148.51 14.0448 148.51C13.2997 148.51 12.6355 148.347 12.0534 148.022C11.4706 147.697 11.016 147.241 10.6914 146.653C10.3662 146.065 10.2039 145.39 10.2039 144.625C10.2039 144.329 10.223 144.062 10.2617 143.822H16.295C16.2477 143.192 16.0138 142.686 15.5927 142.303C15.1728 141.922 14.6564 141.731 14.0448 141.731C13.1663 141.731 12.5448 142.098 12.1822 142.834H10.4194C10.6579 142.108 11.0902 141.513 11.7163 141.05C12.3418 140.587 13.1184 140.354 14.0448 140.354C14.7997 140.354 15.4757 140.524 16.0729 140.863Z" fill="white"/>
<path d="M22.716 144.439L26.3564 148.38H24.1489L21.2252 144.983V148.38H19.5912V137.775H21.2252V143.937L24.0917 140.483H26.3564L22.716 144.439Z" fill="white"/>
<path d="M29.1653 148.38H27.5313V140.483H29.1653V148.38ZM27.6167 139.136C27.4163 138.935 27.3165 138.687 27.3165 138.391C27.3165 138.095 27.4163 137.846 27.6167 137.645C27.8178 137.445 28.0661 137.345 28.3624 137.345C28.6489 137.345 28.8926 137.445 29.093 137.645C29.2941 137.846 29.3946 138.095 29.3946 138.391C29.3946 138.687 29.2941 138.935 29.093 139.136C28.8926 139.336 28.6489 139.437 28.3624 139.437C28.0661 139.437 27.8178 139.336 27.6167 139.136Z" fill="white"/>
<path d="M32.9491 148.38H31.3151V137.775H32.9491V148.38Z" fill="white"/>
<path d="M43.9696 146.646C44.285 146.379 44.4427 146.006 44.4427 145.528C44.4427 145.041 44.2751 144.654 43.9414 144.367C43.6063 144.081 43.1622 143.937 42.6077 143.937H40.4586V147.047H42.6655C43.2193 147.047 43.6543 146.914 43.9696 146.646ZM40.4586 142.604H42.4789C43.0137 142.604 43.4322 142.482 43.7331 142.239C44.034 141.995 44.1845 141.645 44.1845 141.185C44.1845 140.737 44.034 140.386 43.7331 140.132C43.4322 139.879 43.0137 139.752 42.4789 139.752H40.4586V142.604ZM45.5175 144.11C45.89 144.578 46.0766 145.108 46.0766 145.7C46.0766 146.207 45.9446 146.662 45.6818 147.069C45.4196 147.475 45.0392 147.795 44.5432 148.029C44.0458 148.263 43.4677 148.38 42.8087 148.38H38.824V138.419H42.6228C43.3008 138.419 43.8836 138.534 44.3711 138.764C44.8579 138.993 45.2258 139.301 45.4742 139.688C45.7225 140.074 45.8473 140.507 45.8473 140.985C45.8473 141.558 45.6943 142.035 45.3881 142.418C45.0826 142.8 44.672 143.082 44.1556 143.264C44.691 143.359 45.145 143.641 45.5175 144.11Z" fill="white"/>
<path d="M52.06 139.243C51.8924 139.076 51.809 138.873 51.809 138.634C51.809 138.395 51.8924 138.192 52.06 138.025C52.2268 137.858 52.4299 137.775 52.669 137.775C52.9075 137.775 53.1105 137.858 53.278 138.025C53.4449 138.192 53.529 138.395 53.529 138.634C53.529 138.873 53.4449 139.076 53.278 139.243C53.1105 139.411 52.9075 139.494 52.669 139.494C52.4299 139.494 52.2268 139.411 52.06 139.243ZM49.5949 139.243C49.4273 139.076 49.3439 138.873 49.3439 138.634C49.3439 138.395 49.4273 138.192 49.5949 138.025C49.7618 137.858 49.9648 137.775 50.2039 137.775C50.4424 137.775 50.6454 137.858 50.813 138.025C50.9798 138.192 51.0639 138.395 51.0639 138.634C51.0639 138.873 50.9798 139.076 50.813 139.243C50.6454 139.411 50.4424 139.494 50.2039 139.494C49.9648 139.494 49.7618 139.411 49.5949 139.243ZM55.0046 140.483V148.38H53.3713V147.449C53.1131 147.773 52.7761 148.029 52.3609 148.215C51.945 148.401 51.5028 148.495 51.035 148.495C50.4135 148.495 49.857 148.366 49.3656 148.108C48.8728 147.85 48.4865 147.468 48.204 146.961C47.9228 146.455 47.7816 145.844 47.7816 145.127V140.483H49.4017V144.883C49.4017 145.59 49.5778 146.132 49.9313 146.51C50.2847 146.888 50.7676 147.076 51.3786 147.076C51.9903 147.076 52.4752 146.888 52.8333 146.51C53.192 146.132 53.3713 145.59 53.3713 144.883V140.483H55.0046Z" fill="white"/>
<path d="M59.7418 140.691C60.1386 140.467 60.6083 140.354 61.153 140.354V142.046H60.7378C60.0979 142.046 59.6123 142.208 59.2832 142.533C58.9534 142.858 58.7884 143.421 58.7884 144.224V148.38H57.1545V140.483H58.7884V141.63C59.0276 141.228 59.3449 140.916 59.7418 140.691Z" fill="white"/>
<path d="M67.2657 146.789C67.6336 146.588 67.9319 146.287 68.1618 145.887C68.3911 145.485 68.5055 144.997 68.5055 144.424C68.5055 143.851 68.3957 143.366 68.1756 142.97C67.9562 142.573 67.6645 142.274 67.3018 142.074C66.9379 141.874 66.5469 141.772 66.1265 141.772C65.706 141.772 65.317 141.874 64.9583 142.074C64.6002 142.274 64.3158 142.573 64.1055 142.97C63.8953 143.366 63.7901 143.851 63.7901 144.424C63.7901 145.275 64.0076 145.931 64.4426 146.395C64.8768 146.858 65.4241 147.09 66.0831 147.09C66.5036 147.09 66.8978 146.99 67.2657 146.789ZM64.0628 148C63.4603 147.661 62.9879 147.183 62.6437 146.567C62.3001 145.951 62.1279 145.237 62.1279 144.424C62.1279 143.622 62.304 142.91 62.6581 142.289C63.0109 141.668 63.4938 141.19 64.1055 140.856C64.7172 140.521 65.4005 140.354 66.1554 140.354C66.9096 140.354 67.5929 140.521 68.2046 140.856C68.8156 141.19 69.2985 141.668 69.6519 142.289C70.0054 142.91 70.1821 143.622 70.1821 144.424C70.1821 145.227 70.0008 145.939 69.6375 146.559C69.2748 147.181 68.7801 147.661 68.1546 148C67.5285 148.339 66.838 148.509 66.0831 148.509C65.338 148.509 64.6646 148.339 64.0628 148Z" fill="white"/>
<path d="M72.9981 148.172C72.506 147.948 72.1171 147.642 71.83 147.255C71.5435 146.869 71.3905 146.436 71.3714 145.958H73.0625C73.0914 146.293 73.2511 146.572 73.5428 146.796C73.8338 147.021 74.1998 147.133 74.6393 147.133C75.0979 147.133 75.454 147.045 75.707 146.869C75.9599 146.692 76.0867 146.465 76.0867 146.187C76.0867 145.891 75.9455 145.671 75.6643 145.528C75.3817 145.385 74.9356 145.227 74.324 145.055C73.7314 144.893 73.2491 144.735 72.8766 144.582C72.5041 144.43 72.1815 144.195 71.9095 143.881C71.6368 143.565 71.5008 143.149 71.5008 142.633C71.5008 142.213 71.625 141.828 71.8733 141.479C72.1217 141.13 72.4771 140.856 72.941 140.656C73.4042 140.454 73.937 140.354 74.5388 140.354C75.4369 140.354 76.161 140.581 76.7102 141.035C77.2595 141.489 77.5538 142.108 77.5919 142.891H75.9579C75.929 142.538 75.7858 142.256 75.5283 142.046C75.2701 141.835 74.9212 141.73 74.4817 141.73C74.052 141.73 73.7222 141.811 73.4929 141.974C73.2636 142.136 73.1486 142.352 73.1486 142.619C73.1486 142.829 73.2255 143.006 73.3785 143.149C73.531 143.293 73.7169 143.405 73.937 143.486C74.1571 143.567 74.4817 143.67 74.912 143.794C75.4849 143.947 75.9553 144.103 76.3232 144.26C76.6912 144.417 77.0085 144.649 77.2765 144.955C77.5439 145.26 77.6826 145.667 77.6918 146.173C77.6918 146.623 77.5683 147.024 77.3192 147.377C77.0709 147.731 76.7201 148.008 76.2661 148.208C75.8121 148.409 75.2793 148.51 74.6682 148.51C74.0467 148.51 73.4902 148.397 72.9981 148.172Z" fill="white"/>
<path d="M86.6065 140.483V148.38H84.9732V147.449C84.7143 147.774 84.3773 148.029 83.9627 148.216C83.5469 148.402 83.1047 148.495 82.6369 148.495C82.0154 148.495 81.4589 148.366 80.9675 148.108C80.4747 147.85 80.0877 147.468 79.8059 146.961C79.524 146.455 79.3834 145.844 79.3834 145.127V140.483H81.0029V144.883C81.0029 145.59 81.1797 146.133 81.5331 146.51C81.8859 146.888 82.3688 147.076 82.9805 147.076C83.5915 147.076 84.0771 146.888 84.4345 146.51C84.7932 146.133 84.9732 145.59 84.9732 144.883V140.483H86.6065Z" fill="white"/>
<path d="M94.5464 150H92.9124V136.901H94.5464V150Z" fill="white"/>
<path d="M102.486 147.062H105.854V148.38H100.853V138.42H102.486V147.062Z" fill="white"/>
<path d="M112.798 143.006C112.573 142.604 112.28 142.299 111.916 142.089C111.553 141.878 111.162 141.773 110.742 141.773C110.321 141.773 109.929 141.876 109.566 142.081C109.202 142.286 108.909 142.587 108.684 142.984C108.459 143.38 108.348 143.851 108.348 144.396C108.348 144.94 108.459 145.418 108.684 145.829C108.909 146.24 109.205 146.552 109.574 146.768C109.941 146.983 110.33 147.09 110.742 147.09C111.162 147.09 111.553 146.985 111.916 146.775C112.28 146.565 112.573 146.257 112.798 145.851C113.022 145.445 113.135 144.969 113.135 144.424C113.135 143.88 113.022 143.407 112.798 143.006ZM107.166 142.289C107.495 141.678 107.944 141.202 108.513 140.863C109.081 140.524 109.71 140.354 110.398 140.354C111.018 140.354 111.56 140.476 112.024 140.72C112.487 140.964 112.858 141.267 113.135 141.629V140.483H114.783V148.38H113.135V147.205C112.858 147.577 112.48 147.889 112.003 148.137C111.525 148.385 110.98 148.51 110.369 148.51C109.691 148.51 109.069 148.335 108.506 147.986C107.941 147.638 107.495 147.15 107.166 146.523C106.836 145.898 106.671 145.189 106.671 144.396C106.671 143.603 106.836 142.901 107.166 142.289Z" fill="white"/>
<path d="M127.538 140.483L125.088 148.38H123.368L121.777 142.547L120.186 148.38H118.466L116.001 140.483H117.664L119.312 146.832L120.988 140.483H122.694L124.299 146.803L125.933 140.483H127.538Z" fill="white"/>
<path d="M138.344 138.42V139.752H134.116V142.69H137.413V144.023H134.116V148.38H132.483V138.42H138.344Z" fill="white"/>
<path d="M141.498 148.38H139.865V140.483H141.498V148.38ZM139.95 139.136C139.75 138.935 139.649 138.687 139.649 138.391C139.649 138.095 139.75 137.846 139.95 137.645C140.15 137.445 140.399 137.345 140.695 137.345C140.982 137.345 141.225 137.445 141.426 137.645C141.627 137.846 141.727 138.095 141.727 138.391C141.727 138.687 141.627 138.935 141.426 139.136C141.225 139.336 140.982 139.437 140.695 139.437C140.399 139.437 140.15 139.336 139.95 139.136Z" fill="white"/>
<path d="M146.234 140.691C146.631 140.467 147.101 140.354 147.645 140.354V142.046H147.231C146.59 142.046 146.105 142.208 145.776 142.533C145.446 142.858 145.282 143.421 145.282 144.224V148.38H143.647V140.483H145.282V141.63C145.52 141.228 145.837 140.916 146.234 140.691Z" fill="white"/>
<path d="M160.38 140.742C160.872 141 161.259 141.381 161.541 141.888C161.822 142.395 161.964 143.006 161.964 143.722V148.38H160.344V143.966C160.344 143.259 160.167 142.717 159.814 142.339C159.46 141.962 158.977 141.772 158.366 141.772C157.754 141.772 157.27 141.962 156.912 142.339C156.553 142.717 156.374 143.259 156.374 143.966V148.38H154.754V143.966C154.754 143.259 154.578 142.717 154.224 142.339C153.871 141.962 153.388 141.772 152.777 141.772C152.165 141.772 151.68 141.962 151.322 142.339C150.963 142.717 150.785 143.259 150.785 143.966V148.38H149.151V140.483H150.785V141.386C151.052 141.062 151.391 140.809 151.802 140.627C152.213 140.445 152.652 140.354 153.12 140.354C153.751 140.354 154.315 140.488 154.811 140.755C155.309 141.023 155.691 141.41 155.959 141.916C156.198 141.439 156.57 141.059 157.076 140.777C157.582 140.495 158.127 140.354 158.71 140.354C159.331 140.354 159.887 140.483 160.38 140.742Z" fill="white"/>
<path d="M57.034 31.3903C57.034 31.3903 55.9756 32.41 56.0537 32.8804C56.0537 32.8804 56.9946 32.6057 57.034 31.3903Z" fill="white"/>
<path d="M61.347 31.3903C61.347 31.3903 60.2885 32.096 59.7787 33.5466C59.7787 33.5466 62.837 32.41 63.9349 32.4685C63.9349 32.4685 63.3075 31.3115 61.504 31.3903H61.347Z" fill="white"/>
<path d="M68.5367 70.3862C68.5387 70.3291 68.5315 70.2732 68.5092 70.22C68.5092 70.22 68.5177 70.2837 68.5367 70.3862Z" fill="white"/>
<path d="M72.3255 54.1703C66.7567 56.4061 65.7771 59.9349 65.7771 59.9349C65.7771 59.9349 64.404 56.9527 70.7191 53.2301C70.7191 53.2301 75.9436 51.0344 76.7175 48.7586C76.7175 48.7586 77.8942 51.9345 72.3255 54.1703ZM62.4205 61.7778C58.2892 56.7845 62.8383 52.9936 62.8383 52.9936L65.5807 54.146C61.9993 56.1821 62.4205 61.7778 62.4205 61.7778ZM56.127 51.8452C55.6415 49.4405 57.0331 46.9308 57.0331 46.9308L55.9181 47.0602C57.6014 43.8961 61.8581 42.9572 61.8581 42.9572H62.5492C57.0087 45.988 56.127 51.8452 56.127 51.8452ZM76.8923 35.0817C76.6558 34.1021 74.0297 32.1423 73.2867 31.8289C72.5403 31.5129 73.0101 30.2199 73.0101 30.2199C73.4805 31.2396 76.3825 31.279 77.0493 32.886C77.7155 34.495 76.8923 35.0817 76.8923 35.0817ZM71.6527 32.729C70.8938 33.2388 69.8341 33.5522 69.8341 33.7487C69.8341 33.7487 69.2481 33.3959 69.5608 32.5726C69.8748 31.7494 70.1482 31.574 69.9143 31.4853C69.6777 31.396 69.2848 31.4853 69.2848 31.4853C69.2848 31.4853 69.951 30.6897 69.951 30.4558C69.951 30.2199 69.0115 30.8092 69.1278 30.0635C69.1278 30.0635 69.4813 29.986 69.9911 29.2403C69.9911 29.2403 71.3117 29.0833 71.6527 29.6516C71.9904 30.2199 72.4082 32.2192 71.6527 32.729ZM81.1832 55.6998C83.5727 59.3054 94.1261 60.7187 94.1261 60.7187C94.1261 60.7187 88.401 58.9927 83.8519 55.776C79.3035 52.5639 80.1944 47.0602 80.1944 47.0602C79.2792 47.8953 78.7812 48.16 78.7812 48.16L80.5321 45.8842C81.9446 43.402 80.99 41.5072 80.99 41.5072C78.9533 39.7011 78.7937 36.9181 78.7937 36.9181C77.8541 38.7209 77.3443 38.8411 77.3443 38.8411C77.3443 38.8411 77.657 37.8214 78.1275 36.7617C78.6005 35.7026 78.1275 32.8795 78.1275 32.8795C78.1275 32.8795 77.4238 30.8802 74.3648 29.6273C71.3058 28.3705 70.836 25.9409 70.836 25.9409C68.796 25.1551 64.8954 25.6248 64.8954 25.6248L64.8376 24.8233L64.404 25.0966C62.3863 26.5867 61.5631 26.3134 61.5631 26.3134C61.5631 25.9014 60.9797 25.3916 60.9797 25.3916C60.9797 25.3916 59.9416 28.2023 59.1059 28.5768C59.2721 28.536 62.408 27.7746 62.9671 28.0577C62.9671 28.0577 62.4205 28.3981 62.2083 28.9979C62.2083 28.9979 65.8941 27.09 67.3868 27.3265C67.3868 27.3265 68.2468 27.2739 68.4031 27.4835C68.4031 27.4835 65.5564 28.6595 65.7127 28.9979C65.7127 28.9979 67.9334 28.9723 68.4031 29.2062C68.4031 29.2062 67.2823 30.2784 66.3395 30.4867C66.3395 30.4867 65.4519 30.7757 64.7174 30.4867C64.7174 30.4867 64.404 31.507 67.5957 31.5589C67.5957 31.5589 66.8618 32.6062 67.0977 32.9715C67.0977 32.9715 67.1502 33.4077 67.758 33.2145C68.1055 33.1009 68.2192 32.9905 68.256 32.9136C68.2251 33.1252 68.1364 33.6409 67.9334 33.7828C67.6785 33.9576 67.8749 35.859 67.8749 35.859C67.8749 35.859 67.915 36.6053 68.5017 36.5068C68.5017 36.5068 68.6397 35.2506 69.091 35.2716C69.543 35.2907 69.5608 35.6803 69.2875 36.516C69.0115 37.3484 67.3592 39.4029 67.3592 39.4029L67.1227 39.6118C67.6627 39.7038 68.0687 40.0907 68.0687 40.5513C68.0687 40.6498 68.0503 40.7425 68.0162 40.8312C69.6777 39.9561 70.8755 35.859 70.8755 35.859C71.269 38.8345 70.1692 41.1288 68.7566 42.7877C68.6857 42.8679 68.618 42.9474 68.5477 43.0243C68.0227 43.6077 67.4663 44.1057 66.9321 44.5229C66.8309 44.6024 66.7265 44.6799 66.6246 44.7535C65.3317 45.7114 64.2476 46.1726 64.2476 46.1726C65.0649 46.2731 65.8691 46.1601 66.6246 45.9236C66.7291 45.8927 66.8309 45.8592 66.9321 45.8224C67.9584 45.4565 68.8703 44.8888 69.5641 44.379C69.6501 44.314 69.7303 44.2528 69.8072 44.1944C70.4977 43.6602 70.9129 43.2306 70.9129 43.2306C70.8755 43.7496 70.6238 44.2686 70.2401 44.7719C70.1784 44.8547 70.114 44.9342 70.043 45.0176C69.2323 45.9703 67.9978 46.8454 66.9321 47.4998C66.8277 47.5602 66.7265 47.6252 66.6246 47.6837C65.6207 48.2763 64.8376 48.6416 64.8376 48.6416L66.6246 48.6048L66.9321 48.5989L68.8361 48.5621C69.773 47.8953 70.541 47.2074 71.1672 46.5221C71.2414 46.4426 71.3091 46.3658 71.3767 46.2889C74.6716 42.4954 73.7755 38.801 73.7755 38.801L73.265 39.8207L72.7551 39.7011C73.5816 34.6823 72.2854 34.9957 72.2854 34.9957L72.1684 34.7624L71.5423 34.292L71.7388 33.3499C72.6388 33.0766 74.4049 35.9385 74.4049 35.9385L74.4417 37.7019L74.7183 37.5849C76.7576 43.3869 73.5541 47.4255 73.5541 47.4255C75.096 48.003 77.866 45.3343 77.866 45.3343C76.9265 49.3886 73.1086 49.9629 73.1086 49.9629L73.5199 49.1482L71.3209 48.9301L69.9977 49.1396C69.9977 49.1429 69.9944 49.1456 69.9944 49.1482C68.9747 53.0087 66.6805 52.8898 66.6805 52.8898C63.1511 53.7249 60.433 49.9872 60.433 49.9872L60.8233 51.1113L60.5618 51.2677C58.0008 53.282 58.1046 56.9409 58.1046 56.9409C58.1046 56.9409 56.6152 55.531 57.2696 52.2873C57.9239 49.047 61.4527 46.6148 61.4527 46.6148L59.9876 46.5905L61.6741 45.5701C63.36 44.8396 65.2949 41.8049 65.2949 41.8049C65.2949 41.8049 65.1109 41.4672 63.9349 41.6754C62.7582 41.885 61.0073 41.4146 61.0073 41.4146C60.6144 40.8404 60.2491 41.3627 60.2491 41.3627C60.1197 42.3548 58.7071 43.3219 58.2373 43.2976C57.7669 43.27 57.5304 42.3305 57.5304 42.3305C57.5304 42.3305 57.0606 41.5716 57.0331 42.0414C57.0087 42.5111 56.6954 42.6156 56.6954 42.6156C56.6954 42.6156 56.4864 42.6156 56.1546 42.6432C55.8229 42.6682 55.2578 42.069 55.3866 41.5959C55.5187 41.1262 54.4714 40.8653 54.4714 40.8653C53.9491 39.4029 55.7276 39.1663 55.7276 39.1663C56.3294 38.826 58.5501 40.4994 59.8312 40.6564C61.1117 40.8128 61.0598 40.2629 61.0598 40.2629C61.8949 41.0217 64.0912 40.8404 64.0912 40.8404C64.7022 40.9205 65.2581 40.7083 65.6878 40.4501C65.7403 40.0447 66.1089 39.713 66.5944 39.621C67.5983 37.0199 65.986 33.5154 65.986 33.5154C65.0156 36.7735 63.5413 37.3885 63.5413 37.3885C63.0716 37.5724 62.8383 37.2071 62.8383 37.2071C62.5249 36.2643 61.7142 36.083 61.7142 36.083C61.4251 36.6572 61.7385 37.5724 61.7385 37.5724C61.6768 37.9811 62.749 38.4633 63.1268 38.6197C62.2451 38.3037 61.5815 38.3313 61.5815 38.3313C61.5815 38.9824 62.2083 39.5842 62.2083 39.5842C61.6859 39.5323 61.2963 39.0349 61.2963 39.0349L60.6663 39.2432C59.4377 39.6887 58.8392 39.2432 58.8392 39.2432C58.3136 38.5402 56.5416 38.3562 56.5416 38.3562L56.0502 37.8582V36.5101C56.0811 36.5127 56.2407 36.4726 56.3084 36.4641C56.3235 36.4641 56.3419 36.4641 56.357 36.4575C57.0547 36.2887 57.964 36.0035 58.3996 35.7236C58.4706 35.6776 58.5133 35.6008 58.5198 35.5239C58.5284 35.4654 58.5166 35.4043 58.4831 35.3518C58.4246 35.2631 58.3569 35.1836 58.286 35.112C58.0218 34.8636 57.6598 34.75 57.2972 34.75H55.3991C55.2329 34.75 55.0647 34.7624 54.8984 34.79C54.8249 34.8025 54.7539 34.8143 54.6895 34.8268C54.5791 34.8452 54.4839 34.8669 54.4103 34.8846C54.2874 34.9155 54.0877 35.0817 54.0233 35.2046C53.8571 35.5206 53.9859 35.8432 54.0811 36.0121C54.1245 36.0889 54.1613 36.1356 54.1613 36.1356C54.1705 36.1632 54.183 36.1875 54.1981 36.2085C54.2901 36.353 54.4898 36.4332 54.7263 36.4792C54.7697 36.4884 54.8157 36.4976 54.8649 36.5002C54.8709 36.5035 54.8768 36.5035 54.8833 36.5035L55.3347 36.5252V38.3313L55.0739 38.4357L54.7605 38.6966H54.4714L54.315 38.5126C53.5562 38.2518 53.6882 37.3885 53.6882 37.3885H53.4274C53.1909 38.0422 53.8729 39.2833 53.8729 39.2833V39.508C53.8729 39.508 53.7126 40.3154 51.6246 41.0493C50.4814 41.4488 49.9874 41.4271 49.7725 41.3226C49.7265 41.2615 49.674 41.2063 49.6155 41.1538C49.5971 41.1387 49.5761 41.1203 49.5511 41.1012C49.3606 40.9632 49.1089 40.8778 48.8383 40.8778C48.2338 40.8778 47.7424 41.2983 47.7424 41.8141C47.7424 42.1209 47.9171 42.3942 48.1878 42.5637C48.2121 42.5788 48.2364 42.5946 48.264 42.6064C48.4303 42.6958 48.63 42.7477 48.8383 42.7477C49.1365 42.7477 49.4066 42.6465 49.6037 42.4809C49.7357 42.4402 49.8185 42.4073 49.8185 42.4073C51.1509 42.5637 53.7007 41.0736 53.7007 41.0736C53.5444 41.7405 53.9708 42.0171 53.9708 42.0171C54.7506 42.7201 55.0739 42.5913 55.0739 42.5913C55.4142 43.7154 56.5383 43.8442 56.5383 43.8442C56.6671 42.772 57.7794 43.9368 56.876 44.5262C55.9766 45.1129 54.0535 47.5825 53.9773 50.681C53.8972 53.7768 55.0338 54.4068 55.8964 55.5434C56.7597 56.6794 55.5837 57.3055 56.9562 59.7391C58.3293 62.168 58.2373 64.4964 58.5501 64.2868C58.8635 64.0786 58.759 61.9867 58.759 61.9867C58.759 61.9867 60.1716 62.1956 61.4251 64.183C62.6813 66.1672 61.8949 67.0298 62.1314 68.3103C62.3679 69.5921 65.034 72.8351 65.034 72.8351C60.6663 72.0763 58.8911 66.4556 58.8911 66.4556C58.1322 69.7485 60.799 71.6584 63.9868 74.4809C67.1746 77.3041 70.3137 75.3166 70.3137 75.3166C72.3255 72.0763 69.8959 70.9002 69.8959 70.9002L69.6074 71.8923C68.9071 72.0001 68.618 70.8293 68.5352 70.3871C68.5201 70.8017 67.9334 71.2655 67.9334 71.2655C67.0182 71.1611 66.5235 69.6716 66.5235 69.6716C66.6529 70.3779 66.1056 70.5067 66.1056 70.5067C64.745 69.6716 64.7174 67.6317 64.7174 67.6317C65.1628 67.11 67.8046 69.5396 67.8046 69.5396L68.0898 68.7558C68.2468 69.4345 71.5423 69.7235 71.5423 69.7235C72.3071 72.0704 71.0811 76.3606 71.0233 76.5669C72.9798 74.134 73.8149 70.0067 73.0843 65.8538C72.3531 61.6983 70.1232 60.8323 70.1232 60.8323C71.0726 62.5149 71.3058 66.0502 71.3058 66.0502C69.2297 65.6206 67.8565 62.601 67.8565 62.601C67.3618 63.7803 67.7889 66.4037 67.8138 66.5542C67.7369 66.4523 66.4466 64.687 66.5603 62.4045C66.6772 60.0886 71.8091 57.5427 71.9694 57.4658C70.9924 59.9723 71.7388 60.992 71.7388 60.992C72.1684 58.4822 78.6005 53.6605 78.6005 53.6605C79.3436 60.5623 83.3053 59.8554 83.3053 59.8554C81.1096 57.6991 81.1832 55.6998 81.1832 55.6998Z" fill="white"/>
<path d="M48.7651 42.2751H49.072V42.1214H48.7651V42.2751Z" fill="white"/>
<path d="M49.0722 49.3392V42.2751H48.7654V49.3392H44.6742L48.6786 42.2751H48.7654V42.1213H49.0722V42.2751H49.1799L53.0897 49.3392H49.0722ZM53.6088 49.6466L49.3606 41.9676H48.5006L44.1453 49.6466H51.597C51.4492 50.2452 50.7797 52.4225 48.8081 52.7575C46.5808 53.138 44.2038 50.6538 44.0691 50.5093C44.4712 51.1729 44.8982 51.6978 45.3345 52.1216C47.1215 53.8541 49.9322 54.1057 51.9991 52.7201C53.6331 51.6268 53.5963 50.1223 53.5411 49.6466H53.6088Z" fill="white"/>
<path d="M66.9321 48.8412V41.5807H67.4663L68.5477 43.0241L69.5641 44.3788L70.043 45.0181L71.1672 46.5226L72.9056 48.8412H66.9321ZM66.6247 48.8412H60.9863L66.2475 41.5807H66.6247V48.8412ZM71.3768 46.2887L70.2402 44.7724L69.8065 44.1949L68.7566 42.7876L67.6351 41.2922C67.4295 41.4276 67.1627 41.5104 66.8737 41.5104C66.5728 41.5104 66.2994 41.421 66.0905 41.2732L60.3838 49.1487H73.5199L71.3768 46.2887Z" fill="white"/>
<path d="M88.5975 81.576C88.5975 81.576 88.6376 80.4794 89.1073 80.2436C89.5771 80.0097 89.694 78.0472 88.9911 77.4605C88.2841 76.8745 88.2841 74.9514 88.5574 74.7149C88.834 74.481 89.1842 74.048 89.1842 74.048C89.1842 74.048 88.702 73.056 88.2657 72.8043C88.1094 72.7675 88.0082 72.7551 88.0082 72.7551C88.091 72.7275 88.1764 72.7518 88.2657 72.8043C88.6593 72.8963 89.4207 73.1545 90.0101 73.8549C90.8333 74.8345 91.6933 77.0676 93.8529 77.7338C96.0085 78.4007 98.5183 79.4998 100.398 83.8118L88.5975 81.576ZM87.6948 88.598C87.1206 94.2423 82.1536 94.6083 81.9973 94.6083C81.8468 94.6083 51.2587 94.8442 48.2766 94.8691V94.8665C48.2766 94.8665 49.4191 91.6354 48.2457 83.2533L82.5715 81.5911C82.5715 81.5911 88.2723 82.9491 87.6948 88.598ZM76.5606 79.2239C76.3641 78.8336 76.441 78.2069 76.4042 77.697C76.3641 77.1872 76.822 76.9106 76.822 76.9106C76.822 76.9106 76.7577 75.7746 76.9909 74.638C77.2274 73.5014 78.6768 70.0896 78.6768 70.0896C79.5801 69.9326 82.9525 69.8163 82.9525 69.8163C81.1096 70.2854 81.5794 70.9128 81.5794 70.9128C80.3633 76.0105 85.6949 78.3632 85.5385 78.7167C85.3815 79.0669 85.5385 81.0294 85.5385 81.0294C83.852 80.5596 83.3829 80.5596 83.3829 80.5596H76.4016C76.4016 80.5596 76.7577 79.6168 76.5606 79.2239ZM117.023 87.0278L105.785 84.7276C105.785 84.7276 103.641 81.3828 103.276 79.4998C102.91 77.6175 102.437 76.6255 101.968 76.1524C101.497 75.682 99.5622 73.9837 99.5622 72.5192V68.7808V68.4431C99.5622 68.4431 101.614 70.5994 105.653 69.8524C109.691 69.1093 113.928 65.3073 111.141 59.3062C111.141 59.3062 109.299 56.1697 104.946 56.326C100.594 56.4837 100.634 58.7188 100.634 58.7188C100.634 58.7188 101.694 57.4633 102.791 57.19L102.594 57.8555L103.497 57.2294C103.497 57.2294 104.047 56.916 103.967 57.5027C103.89 58.0927 103.536 60.5217 102.594 61.1123C102.594 61.1123 102.477 58.9521 102.203 58.8759C101.927 58.7957 101.457 60.2089 101.574 60.4822C101.694 60.7582 101.418 62.6779 100.907 62.4447C100.398 62.2082 100.791 60.3653 100.791 60.3653C100.791 60.3653 99.2613 62.9545 101.574 65.3073C101.574 65.3073 102.203 62.6385 103.224 61.5814C103.224 61.5814 103.536 62.1681 103.34 62.9151C103.144 63.6582 105.889 61.5019 105.027 58.483L104.91 57.7392C104.91 57.7392 106.596 57.3864 108.242 58.5224C109.888 59.659 110.475 60.4822 109.888 63.7377C109.299 66.9905 106.789 68.5995 103.497 67.7369C100.204 66.8736 100.321 66.7566 98.9079 64.9538C97.5571 63.2213 96.4572 62.7555 96.3679 62.7246C96.4914 62.8501 98.4506 64.8868 98.7916 66.4833C99.145 68.1298 98.1655 73.5014 99.1043 74.795C100.048 76.0874 101.811 77.697 101.224 79.6168C101.224 79.6168 97.105 75.9711 95.3791 75.6577C95.3791 75.6577 93.5369 68.0713 87.7375 64.7882C87.7809 64.8283 88.4839 65.5405 88.5975 67.8932C88.5975 67.8932 83.2659 64.3829 82.0492 64.7849C82.0492 64.7849 81.7759 66.5608 80.2864 67.6593C80.2864 67.6593 81.5794 63.7377 80.6767 62.3652C79.7766 60.9921 78.8095 57.3864 78.8095 57.3864C78.8095 57.3864 79.749 63.7627 78.391 66.2717C78.391 66.2717 77.8141 64.3921 77.9186 62.8744C77.9186 62.8744 77.6571 63.0308 77.2918 66.4833C76.9265 69.9326 74.4174 78.2719 73.1087 78.1142C71.8032 77.9579 70.6791 78.7417 70.2862 81.0142H69.503C69.503 81.0142 69.1095 79.2909 71.2934 78.0866H69.8683C69.8683 78.0866 68.4308 78.5045 68.2987 81.0142H67.3868C67.3868 81.0142 67.2824 78.8737 68.7718 78.1918C68.7718 78.1918 66.8093 77.722 66.3915 81.0142V81.2784L48.2365 82.1568L48.0433 82.166V83.2625C48.0433 83.2625 49.0906 91.3673 48.0433 94.8691V96.0728H116.657C116.657 96.0728 120.371 95.5235 120.318 91.1833C120.318 91.1833 120.917 88.5172 117.023 87.0278Z" fill="white"/>
<path d="M51.4647 83.9697C56.0867 83.837 60.7088 83.745 65.3308 83.6314C69.9541 83.5453 74.5761 83.4362 79.1995 83.3699C74.5774 83.5026 69.9554 83.5946 65.3327 83.7082C60.7101 83.7936 56.0881 83.9021 51.4647 83.9697Z" fill="white"/>
<path d="M53.5791 93.094L68.6698 92.7287L83.7625 92.4409L68.6718 92.8062L53.5791 93.094Z" fill="white"/>
<path d="M51.0802 94.1936L80.9844 93.5471L51.0802 94.1936Z" fill="white"/>
<path d="M52.3206 86.1885C56.9419 86.0558 61.5646 85.9638 66.1866 85.8495C70.8099 85.7641 75.432 85.655 80.0546 85.5886C75.4333 85.7213 70.8106 85.8133 66.1886 85.927C61.5659 86.0124 56.9439 86.1208 52.3206 86.1885Z" fill="white"/>
<path d="M50.7463 91.97L65.3646 91.6152C70.2376 91.5232 75.1106 91.4089 79.9842 91.3373C75.1119 91.4759 70.2389 91.5731 65.3659 91.6914L50.7463 91.97Z" fill="white"/>
<path d="M53.1472 89.6885L67.9462 89.3298L82.7472 89.0472L67.9482 89.406L53.1472 89.6885Z" fill="white"/>
<path d="M50.6216 85.1426L66.7721 84.7543L82.9239 84.4435L66.7734 84.8312L50.6216 85.1426Z" fill="white"/>
<path d="M50.5583 87.3613L66.7088 86.973L82.8612 86.6623L66.7101 87.0499L50.5583 87.3613Z" fill="white"/>
<path d="M51.2838 90.8894L67.768 90.4939L84.2548 90.1759L67.7699 90.5714L51.2838 90.8894Z" fill="white"/>
<path d="M50.5292 88.5842L67.3617 88.1821L84.1954 87.8563L67.3636 88.2584L50.5292 88.5842Z" fill="white"/>
<path d="M60.5121 36.9741C60.5121 37.1364 60.407 37.2678 60.2769 37.2678C60.1468 37.2678 60.0417 37.1364 60.0417 36.9741C60.0417 36.8119 60.1468 36.6798 60.2769 36.6798C60.407 36.6798 60.5121 36.8119 60.5121 36.9741Z" fill="white"/>
<path d="M59.0615 37.5619C59.0615 37.7248 58.9564 37.8562 58.8263 37.8562C58.6962 37.8562 58.5911 37.7248 58.5911 37.5619C58.5911 37.3996 58.6962 37.2682 58.8263 37.2682C58.9564 37.2682 59.0615 37.3996 59.0615 37.5619Z" fill="white"/>
<path d="M54.3518 37.5617C54.3518 37.6426 54.3091 37.7083 54.2558 37.7083C54.2026 37.7083 54.1599 37.6426 54.1599 37.5617C54.1599 37.4816 54.2026 37.4159 54.2558 37.4159C54.3091 37.4159 54.3518 37.4816 54.3518 37.5617Z" fill="white"/>
<path d="M53.668 36.7908C53.668 36.8355 53.643 36.8723 53.6121 36.8723C53.5812 36.8723 53.5563 36.8355 53.5563 36.7908C53.5563 36.7462 53.5812 36.7094 53.6121 36.7094C53.643 36.7094 53.668 36.7462 53.668 36.7908Z" fill="white"/>
<path d="M60.2279 38.1997C60.2279 38.362 60.1228 38.4934 59.9927 38.4934C59.8626 38.4934 59.7575 38.362 59.7575 38.1997C59.7575 38.0368 59.8626 37.9054 59.9927 37.9054C60.1228 37.9054 60.2279 38.0368 60.2279 38.1997Z" fill="white"/>
<path d="M117.348 14.883C117.348 14.883 130.561 16.1898 134.744 33.1287C134.744 33.1287 127.821 28.9856 123.765 22.725C119.7 16.4513 117.348 14.883 117.348 14.883Z" fill="white"/>
<path d="M130.914 21.3524C130.914 21.3524 140.128 24.3457 141.069 33.1285C142.011 41.9113 141.069 47.3999 141.069 47.3999C141.069 47.3999 137.567 42.4862 131.449 38.1467C125.333 33.8078 124.444 28.2141 124.287 26.1229C124.287 26.1229 126.536 30.0964 130.614 32.344C134.691 34.5916 137.514 38.0948 137.514 38.0948C137.514 38.0948 135.167 23.4456 130.914 21.3524Z" fill="white"/>
<path d="M141.853 30.5667C141.853 30.5667 151.028 39.8199 146.794 52.9942C142.559 66.1684 143.5 64.2079 143.5 64.2079C143.5 64.2079 140.599 56.3666 136.913 52.6026C133.227 48.8386 129.933 41.8586 130.639 39.1143C130.639 39.1143 135.92 44.0241 139.698 48.0542C142.637 51.1914 142.637 54.3469 142.637 54.3469C142.637 54.3469 143.944 32.1356 141.853 30.5667Z" fill="white"/>
<path d="M149.799 49.0736C149.799 49.0736 154.479 63.2675 146.558 73.6179C138.638 83.969 139.814 82.7929 139.814 82.7929C139.814 82.7929 139.971 74.2847 138.442 71.097C136.978 68.0439 133.933 55.0326 134.874 52.6023C134.874 52.6023 135.214 52.6247 136.207 54.9544C137.226 57.3465 141.488 63.3975 142.428 66.4296C143.369 69.4617 142.927 72.1285 142.927 72.1285C142.927 72.1285 145.264 64.6833 146.715 61.9337C148.702 58.1698 149.799 49.0736 149.799 49.0736Z" fill="white"/>
<path d="M151.172 69.2528C151.172 69.2528 152.831 73.3827 150.113 79.709C147.395 86.0346 143.788 90.8958 129.568 98.8948C129.568 98.8948 132.077 95.4968 132.705 81.9303C132.705 81.9303 133.646 70.1942 135.998 67.58C135.998 67.58 136.717 76.1493 137.41 79.029C138.324 82.8337 137.671 86.2954 135.789 90.8958C135.789 90.8958 143.265 80.8587 146.297 78.5586C149.96 75.7801 151.172 69.2528 151.172 69.2528Z" fill="white"/>
<path d="M131.084 82.5319C131.084 82.5319 127.006 87.1322 125.595 90.1117C124.183 93.0919 121.935 100.202 121.517 101.666C121.099 103.13 118.067 108.514 115.766 110.344C115.766 110.344 121.51 109.647 127.402 108.225C133.467 106.762 145.46 98.4767 146.924 88.282C146.924 88.282 143.56 93.3948 139.658 95.7061C135.684 98.0582 127.367 101.851 123.189 105.743C123.189 105.743 127.947 101.09 128.784 93.9808C129.62 86.8708 131.084 82.5319 131.084 82.5319Z" fill="white"/>
<path d="M136.364 105.587C136.364 105.587 132.495 115.154 120.314 117.349C120.314 117.349 115.819 118.186 106.565 116.042L97.3121 113.899C97.3121 113.899 103.062 113.271 106.774 109.873C110.486 106.476 119.344 98.0483 121.346 97.4261C121.346 97.4261 119.217 101.248 118.014 104.07C116.812 106.894 114.407 111.338 108.448 113.115C108.448 113.115 121.883 112.121 127.425 110.919C132.966 109.717 136.364 105.587 136.364 105.587Z" fill="white"/>
<path d="M65.7095 130C65.7095 130 76.1395 116.748 86.4905 115.807C86.4905 115.807 88.2158 115.337 91.1172 117.14C94.0185 118.944 100.998 125.531 108.761 125.139C116.525 124.746 121.073 122.787 124.758 118.081C124.758 118.081 119.112 122.277 109.074 119.924C109.074 119.924 97.0768 114.474 92.4896 114.003C87.9018 113.533 76.7143 112.696 62.8601 127.596L65.7095 130Z" fill="white"/>
<path d="M44.6159 14.883C44.6159 14.883 31.4022 16.1898 27.2197 33.1287C27.2197 33.1287 34.1426 28.9856 38.1982 22.725C42.2631 16.4513 44.6159 14.883 44.6159 14.883Z" fill="white"/>
<path d="M31.0494 21.3524C31.0494 21.3524 21.8356 24.3457 20.8941 33.1285C19.9533 41.9113 20.8941 47.3999 20.8941 47.3999C20.8941 47.3999 24.3972 42.4862 30.5139 38.1467C36.63 33.8078 37.5189 28.2141 37.6753 26.1229C37.6753 26.1229 35.4277 30.0964 31.3503 32.344C27.2723 34.5916 24.4491 38.0948 24.4491 38.0948C24.4491 38.0948 26.7966 23.4456 31.0494 21.3524Z" fill="white"/>
<path d="M20.1101 30.5667C20.1101 30.5667 10.9351 39.8199 15.1695 52.9942C19.4045 66.1684 18.4637 64.2079 18.4637 64.2079C18.4637 64.2079 21.365 56.3666 25.0508 52.6026C28.7359 48.8386 32.0301 41.8586 31.3239 39.1143C31.3239 39.1143 26.0435 44.0241 22.2664 48.0542C19.3263 51.1914 19.3263 54.3469 19.3263 54.3469C19.3263 54.3469 18.0189 32.1356 20.1101 30.5667Z" fill="white"/>
<path d="M12.1638 49.0736C12.1638 49.0736 7.48461 63.2675 15.4054 73.6179C23.325 83.969 22.1489 82.7929 22.1489 82.7929C22.1489 82.7929 21.9919 74.2847 23.5207 71.097C24.9845 68.0439 28.0304 55.0326 27.0896 52.6023C27.0896 52.6023 26.7493 52.6247 25.7559 54.9544C24.7369 57.3465 20.4762 63.3975 19.5354 66.4296C18.5939 69.4617 19.036 72.1285 19.036 72.1285C19.036 72.1285 16.6991 64.6833 15.2484 61.9337C13.2616 58.1698 12.1638 49.0736 12.1638 49.0736Z" fill="white"/>
<path d="M10.7914 69.2528C10.7914 69.2528 9.13184 73.3827 11.8499 79.709C14.5685 86.0346 18.1761 90.8958 32.3957 98.8948C32.3957 98.8948 29.8859 95.4968 29.2591 81.9303C29.2591 81.9303 28.3176 70.1942 25.9656 67.58C25.9656 67.58 25.2462 76.1493 24.5537 79.029C23.6391 82.8337 24.2922 86.2954 26.1745 90.8958C26.1745 90.8958 18.6985 80.8587 15.6664 78.5586C12.0036 75.7801 10.7914 69.2528 10.7914 69.2528Z" fill="white"/>
<path d="M30.8794 82.5319C30.8794 82.5319 34.9574 87.1322 36.3687 90.1117C37.7799 93.0919 40.0282 100.202 40.4467 101.666C40.8645 103.13 43.8966 108.514 46.1968 110.344C46.1968 110.344 40.4539 109.647 34.5613 108.225C28.4971 106.762 16.5029 98.4767 15.0391 88.282C15.0391 88.282 18.4029 93.3948 22.3062 95.7061C26.2791 98.0582 34.5961 101.851 38.774 105.743C38.774 105.743 34.0159 101.09 33.1796 93.9808C32.3432 86.8708 30.8794 82.5319 30.8794 82.5319Z" fill="white"/>
<path d="M25.5993 105.587C25.5993 105.587 29.4677 115.154 41.6492 117.349C41.6492 117.349 46.1445 118.186 55.3983 116.042L64.6516 113.899C64.6516 113.899 58.9008 113.271 55.1894 109.873C51.4773 106.476 42.6196 98.0483 40.6177 97.4261C40.6177 97.4261 42.7471 101.248 43.9494 104.07C45.1517 106.894 47.5564 111.338 53.516 113.115C53.516 113.115 40.081 112.121 34.5391 110.919C28.9973 109.717 25.5993 105.587 25.5993 105.587Z" fill="white"/>
<path d="M96.2538 130C96.2538 130 85.8246 116.748 75.4735 115.807C75.4735 115.807 73.7482 115.337 70.8469 117.14C67.9456 118.944 60.9662 125.531 53.2024 125.139C45.4393 124.746 40.8908 122.787 37.2057 118.081C37.2057 118.081 42.8513 122.277 52.889 119.924C52.889 119.924 64.8865 114.474 69.4744 114.003C74.0616 113.533 85.2497 112.696 99.1033 127.596L96.2538 130Z" fill="white"/>
<path d="M54.2705 14.892C55.1587 14.524 55.7192 13.8907 55.9544 12.988C56.1896 12.0859 56.0325 10.9329 55.4833 9.52951C54.961 8.19645 54.3079 7.2635 53.5208 6.73001C52.7357 6.19784 51.8139 6.1374 50.7588 6.55065C50.5347 6.63803 50.3284 6.73527 50.1373 6.83973C49.9461 6.94551 49.8127 7.0191 49.7358 7.05852L52.9486 15.2691C53.285 15.2316 53.7251 15.1061 54.2705 14.892ZM47.8476 7.96847L46.7734 8.18725L46.4482 7.35548L48.4074 6.5881C48.7017 6.47378 49.0933 6.29902 49.5801 6.0671C49.6925 6.01388 49.8659 5.9357 50.0991 5.83386C50.333 5.73268 50.5439 5.64465 50.7312 5.57041C52.377 4.92654 53.7705 4.85624 54.911 5.35819C56.0509 5.86211 56.9169 6.86798 57.5088 8.38041C57.9221 9.43621 58.0857 10.4539 58.0009 11.4361C57.9155 12.4197 57.5877 13.2876 57.0167 14.0418C56.4458 14.7967 55.6594 15.3703 54.6574 15.7618C54.3973 15.8637 53.984 16.0043 53.4157 16.1856C52.8822 16.3538 52.5222 16.474 52.3343 16.5476L50.2949 17.3452L49.9802 16.5397L50.9874 15.9918L47.8476 7.96847Z" fill="white"/>
<path d="M63.8057 7.84087C63.7597 7.57544 63.7203 7.37243 63.6855 7.23249C63.38 5.99272 62.8117 5.47303 61.9825 5.67868C61.5253 5.79168 61.2158 6.06039 61.0535 6.48613C60.8906 6.91187 60.909 7.58464 61.1061 8.50642L63.8057 7.84087ZM60.8748 12.4734C60.095 11.8992 59.551 10.9866 59.2428 9.73698C59.0359 8.89733 59.0135 8.13193 59.1738 7.4401C59.3342 6.74696 59.6587 6.16749 60.1475 5.70036C60.6357 5.23323 61.2533 4.90801 61.999 4.72471C62.9312 4.49476 63.7098 4.56243 64.3346 4.92838C64.9588 5.29367 65.3917 5.92637 65.6335 6.82646C65.7846 7.44207 65.8595 7.90789 65.8589 8.22522L61.313 9.34541C61.5594 10.1844 61.9227 10.7954 62.4024 11.1765C62.882 11.5582 63.4575 11.6653 64.1296 11.5004C64.4929 11.411 64.853 11.2573 65.211 11.0411C65.5678 10.8237 65.8372 10.6036 66.0198 10.3815L66.5592 11.0648C66.3739 11.3972 66.0277 11.7468 65.5192 12.1147C65.0113 12.4819 64.4686 12.7369 63.8905 12.8801C62.6592 13.1836 61.654 13.0476 60.8748 12.4734Z" fill="white"/>
<path d="M71.3145 1.60568L70.122 1.51107L70.0524 0.621488L77.9811 -3.62396e-05L78.328 2.58921L77.1789 2.67857L76.5245 1.13986L73.409 1.22462L73.7276 5.28884L75.8642 5.07925L76.0377 3.7935L76.9568 3.72254L77.2433 7.36957L76.3386 7.44118L75.9496 6.17119L73.8058 6.28091L74.0982 10.0304L76.3077 10.0009L76.3747 10.8635L70.9597 11.2866L70.892 10.4253L71.9872 10.194L71.3145 1.60568Z" fill="white"/>
<path d="M84.5848 6.11617C84.6131 5.84812 84.6302 5.64182 84.6361 5.49793C84.6821 4.22138 84.2787 3.567 83.4246 3.53546C82.9548 3.51838 82.5823 3.69249 82.3096 4.05712C82.037 4.42176 81.8688 5.07417 81.8051 6.01368L84.5848 6.11617ZM80.4924 9.76385C79.9011 8.99845 79.6284 7.97089 79.6757 6.68514C79.7079 5.82052 79.8958 5.07811 80.2414 4.45724C80.5857 3.83506 81.0567 3.36727 81.6546 3.05322C82.2525 2.73721 82.9351 2.59529 83.7031 2.62354C84.663 2.65771 85.393 2.93759 85.8929 3.46057C86.3929 3.9842 86.6347 4.7115 86.6202 5.64313C86.5972 6.27648 86.5414 6.74558 86.4534 7.04977L81.7735 6.87764C81.7801 7.75211 81.9614 8.43999 82.3182 8.93734C82.6749 9.43667 83.1986 9.69815 83.8891 9.72378C84.2642 9.73757 84.6532 9.68896 85.0553 9.57858C85.458 9.46952 85.778 9.3322 86.0145 9.16795L86.3456 9.97212C86.0762 10.2415 85.6466 10.4826 85.0579 10.6968C84.4672 10.9097 83.8759 11.0062 83.2814 10.9846C82.0133 10.9373 81.0843 10.5312 80.4924 9.76385Z" fill="white"/>
<path d="M89.1282 4.54497L88.2589 4.14288L88.4173 3.16197L90.8259 3.24278L90.8686 3.2487L91.178 3.59034L91.0887 4.14551L91.0203 4.48386C91.4027 4.225 91.8771 4.02462 92.4447 3.88205C93.0124 3.73948 93.5669 3.71189 94.1069 3.79927C94.6858 3.89256 95.1207 4.07192 95.4144 4.33735C95.7074 4.60344 95.8881 4.97465 95.9577 5.4536C96.026 5.93059 95.9984 6.55999 95.8736 7.33723L95.2416 11.2635L96.0911 11.5164L95.9544 12.3699L92.2844 11.7805L92.4217 10.9271L93.2075 10.9369L93.8395 7.0107C93.9184 6.51729 93.9473 6.12506 93.9256 5.83466C93.9046 5.54427 93.8165 5.32154 93.6615 5.16452C93.5064 5.00815 93.2686 4.905 92.946 4.85376C92.4046 4.76572 91.789 4.90632 91.0985 5.2703L90.2648 10.4481L91.0979 10.7136L90.9612 11.567L87.2485 10.9705L87.3858 10.1164L88.2314 10.121L89.1282 4.54497Z" fill="white"/>
<path d="M101.394 12.7092C101.666 12.6554 101.897 12.5614 102.088 12.4267L103.59 7.40328C103.553 7.29225 103.441 7.17267 103.253 7.04719C103.066 6.92038 102.852 6.82118 102.612 6.75022C102.024 6.57414 101.476 6.68781 100.969 7.09252C100.461 7.49789 100.04 8.26133 99.7046 9.38415C99.424 10.3223 99.3675 11.0648 99.5351 11.6114C99.7026 12.1574 100.034 12.5056 100.532 12.6541C100.835 12.7454 101.122 12.7638 101.394 12.7092ZM98.0607 12.7198C97.6908 12.3137 97.4576 11.7855 97.361 11.1344C97.2651 10.484 97.3446 9.7317 97.6008 8.87563C97.8321 8.10168 98.202 7.44336 98.7112 6.89805C99.219 6.35405 99.8386 5.98612 100.568 5.79231C101.298 5.60046 102.094 5.63266 102.96 5.89086C103.309 5.99532 103.629 6.13132 103.921 6.29886L104.618 3.96518L103.323 3.36797L103.549 2.60913L106.476 3.18335L106.518 3.19649L106.817 3.6012L103.77 13.7887L104.516 14.0108L104.281 14.7979C103.577 14.7387 103.009 14.6435 102.576 14.514C102.282 14.4253 102.087 14.3143 101.992 14.1803C101.896 14.0469 101.891 13.8386 101.976 13.5522L102.092 13.1659C101.757 13.4162 101.351 13.5837 100.875 13.6665C100.398 13.7499 99.9299 13.723 99.47 13.585C98.9004 13.4142 98.4293 13.1258 98.0607 12.7198Z" fill="white"/>
<path d="M111.593 13.7724C112.036 12.7718 112.253 11.9571 112.248 11.3284C112.241 10.7022 111.97 10.2699 111.435 10.0328C110.415 9.5814 109.482 10.3146 108.636 12.2304C108.193 13.2317 107.982 14.049 108.002 14.6817C108.021 15.3157 108.298 15.7507 108.835 15.9878C109.827 16.4267 110.747 15.6876 111.593 13.7724ZM107.988 9.58008C108.573 9.1458 109.208 8.90468 109.892 8.85541C110.575 8.80547 111.243 8.92439 111.892 9.2115C112.999 9.70031 113.703 10.4191 114.004 11.3645C114.305 12.3112 114.198 13.3697 113.681 14.5378C113.311 15.3729 112.833 16.0095 112.246 16.4477C111.658 16.8866 111.027 17.1271 110.351 17.1698C109.676 17.2125 109.009 17.0883 108.35 16.7973C107.252 16.3117 106.55 15.5949 106.244 14.6469C105.94 13.6975 106.046 12.6384 106.562 11.4703C106.927 10.6444 107.402 10.0144 107.988 9.58008Z" fill="white"/>
</svg>
